<?xml version="1.0" encoding="UTF-8"?>
<svg id="Layer_1" data-name="Layer 1" xmlns="http://www.w3.org/2000/svg" viewBox="0 0 950 950">
  <defs>
    <style>
      .cls-1 {
        fill: #040200;
      }

      .cls-1, .cls-2, .cls-3, .cls-4, .cls-5, .cls-6, .cls-7, .cls-8, .cls-9, .cls-10, .cls-11, .cls-12 {
        fill-rule: evenodd;
      }

      .cls-2 {
        fill: #eeeeef;
      }

      .cls-3 {
        fill: #f4a400;
      }

      .cls-4 {
        fill: #f6eb00;
      }

      .cls-5 {
        fill: #009844;
      }

      .cls-6 {
        fill: #9cc716;
      }

      .cls-7 {
        fill: #9a5b24;
      }

      .cls-8 {
        fill: #133182;
      }

      .cls-9 {
        fill: #e50013;
      }

      .cls-10 {
        fill: #9c5824;
      }

      .cls-12 {
        fill: #231916;
      }
    </style>
  </defs>
  <path class="cls-7" d="m694.8,831.21c-24.64,10.21-50.27,18-75.76,25.77-42.92,13.09-95.03,28.04-129.25,58.18l-14.63,12.88-14.63-12.88c-34.23-30.14-86.33-45.1-129.25-58.18-25.49-7.77-51.12-15.56-75.76-25.77-105.94-39.48-130.69-139.19-129.76-243.29V101.52h46.43c28.53,0,51.95-23.42,51.95-51.95v-27.72h502.04v27.72c0,28.53,23.42,51.95,51.95,51.95h46.43v486.4c.93,104.1-23.82,203.82-129.76,243.29Z"/>
  <path class="cls-6" d="m246.28,43.99h457.77v5.58c0,40.75,33.34,74.08,74.08,74.08h24.29v464.37c1.27,138.64-47.01,197.13-115.72,222.59-70.51,29.32-157.23,40.12-211.54,87.95-54.31-47.83-141.03-58.63-211.54-87.95-68.71-25.45-116.99-83.94-115.72-222.59V123.66h24.29c40.75,0,74.08-33.34,74.08-74.08v-5.58Z"/>
  <path class="cls-1" d="m246.5,721.83c6.39-10.05,16.66-17.89,26.92-23.61,8.35-4.66,9.71-5.84,16.45-.11,3.89,3.31,10.24,8.04,14.53,10.73,24.77,15.54,40.67,22.69,67.61,33.44-8.54,17.59-32.68,20.02-49.26,24.52-9.16,2.49-18.19,5.57-26.1,10.79-4,2.63-6.29,5.5-9.31,9.14-3.37,4.07-4.51,10.64-5.95,12.5-1.53-2.41-2.81-24.22-2.81-28.88,0-7.48,1.11-8.14,1.96-14.08.66-4.64,3.81-9.17,4.05-11.58-6.61-10.28-25.62-22.9-38.09-22.86h0Zm421.85,39.7v2.41l.43.05-3.64,32.03c-1.65-.99-4.45-9.17-5.65-11.6-1.85-3.73-4.72-6.6-7.88-9.36-5.28-4.61-15.96-10.41-22.51-12.37-8.17-2.45-45.9-14.3-47.36-22.41,5.79-.9,28.2-11.88,33.99-15.33,10.57-6.3,20.13-12.25,30.55-18.78,4.51-2.82,9.57-7.29,13.88-10.58,6-4.59,8.43-9.76,14.9-6.51,8.27,4.14,21.82,15.19,26.46,23.25-3.64,1.74-11.64,2.85-17.13,5.49-5.61,2.69-8.96,5.45-13.71,9.14-6.43,5-7.14,7.65-4.93,14.33,2.25,6.81,2.61,12.91,2.61,20.24h0Zm-479.6-170.04c9.09-.08,18.8,18.72,24.07,25.65,7.32,9.63,14.62,18.87,22.35,28.18,7.67,9.23,15.94,17.66,24.27,26.25,4.16,4.3,8.7,8.11,12.95,12.2,8.03,7.72,8.15,6.92-5.82,5.45-25.74-2.7-53.09-9.81-70.25-30.73-9.23-11.25-12.88-19.38-17.44-33.09-3.48-10.47-6.58-33.77,9.86-33.92h0Zm572.23-8.42c7.98-2.55,8.95,7.88,10.4,12.93,2.34,8.18-.15,11.94-1.87,19.66-2.66,11.92-9.17,21.89-16.08,31.64-14.21,20.05-40.44,28.16-63.46,31.89-13.66,2.21-11.44,1.78-5.12-5.12,3.61-3.94,8.09-8.06,11.92-12.05,7.51-7.8,15.82-16.75,22.43-25.29,6.98-9.03,14.13-17.51,20.93-26.79,3.36-4.59,17.15-25.68,20.86-26.87h0Zm-586.27,14.84l.13.14c.13.14.2-.42.26-.53.12-.24.13-.26.26-.52.22-.44.45-.87.69-1.3.48-.86,1.01-1.68,1.61-2.47,1.15-1.5,2.57-2.81,4.21-3.76,3.42-1.97,7.49-2.05,11.12-.59,6.38,2.58,10.8,10.57,14.8,16.01,8.6,11.67,16.99,23.52,26.52,34.47,20.2,23.22,37.27,41.6,62.31,60,26.09,19.17,50.28,30.42,80.56,41.34,25.55,9.22,76.92,18.75,103.74,18.3,29.52-.5,72.44-11.21,100.32-21.63,27.48-10.27,54.66-26.49,77.65-44.66,22.7-17.95,42.39-38.89,60.62-61.29,9.25-11.36,17.55-23,26.45-34.54,4.06-5.26,7.83-14.53,14.1-16.65,13.42-4.54,12.47,13.75,14.45,14.45l.52-6v-.8c0-2.47-.67-6.79-1.32-9.11-1.45-5.21-2.05-4.26-3.49-7.33-1.58,0-10.76-3.11-14.4-3.65-4.98-.73-13.32.36-17.28-.77-13.96-3.98-12.9-4.31-24.88-11.21-1.11.61-16.95,25.22-19.37,28.71-5.52,7.96-15.05,19.3-21.77,26.36-16.54,17.39-31.72,31.07-51.7,44.54-41.44,27.94-96.98,45.37-146.93,45.59-48.56.22-104.8-20.97-145.63-46.93-21.36-13.58-34.98-25.58-51.27-44.97-14.46-17.21-27.7-37.89-42.11-54.13-3.82,1.46-11.7,7.31-15.96,9.71-4.2,2.36-14.87,5.18-19.7,5.96-18.82,3.03-24.34,6.98-24.49,27.24h0Zm498.98,87.16c2.82-4.7,68.3,2.95,94.7-56.88,5.04-11.43,16.89-52.67,1.95-59.7-12.09-5.69-21.51-2.79-32.92-4.77-12.07-2.09-18.31-10.11-25.77-11.93-49.83,86.31-137.33,146.55-239.39,146.02-50.47-.26-102.44-21.08-144.81-47.73-20.68-13.01-35.13-26.89-50.55-45.7-9.31-11.35-33.96-46.99-42.85-53.4-17.82,18.25-41.64,13.36-54.81,22.58-13.78,9.65-5.29,48.65-.02,61.92,16.8,42.25,54.96,56.35,97.73,57.06-.08.2-17.42,11.07-20,13.28-2.86,2.45-14.89,14.47-15.32,17.57,3.15,2.06,16.82,3.38,23.16,7.78,4.51,3.13,14.62,8.59,16.17,14.31-2.85,9.26-5.61,13.88-5.61,24.86v4.81l-.56.09,5.21,34.22.44.14,3.02-.13c1.2-3.16,1.2-10.34,3.61-16.19,1.91-4.63,4.93-7.8,8.63-11.02,7.24-6.32,17.92-10.04,27.23-12.07,13.94-3.05,47.13-11.22,51.88-26.71,5.27.55,17.85,4.93,23.95,6.53,7.87,2.06,16.52,4.34,24.52,5.55,17.5,2.64,36.06,5.89,53.75,6.39,15.54.43,38.34-3.65,53.89-6.71,16.6-3.27,31.39-9.27,47.19-12.96,8.23,6.06,12.66,10.36,22.77,14.12,7.22,2.68,21.94,6.17,27.73,9.17,17.44,9.04,33.86,15.38,33.71,39.68l1.88,1.37c3.85-2.62,7.34-35.29,7.34-41.08v-6.01c0-9.5-1.79-14.65-4.41-23.26,2.85-10.49,29.95-21.65,39.7-21.66-.27-2.93-11.85-14.5-14.66-17.02-6.77-6.06-11.91-8.84-18.48-12.53Z"/>
  <path class="cls-11" d="m500.85,572.73c-.08,6.97-9.03,12.45-15.35,12.45h-2.41c-3.63,0-8.14-1.02-9.63-4.78l-.2-.51-2.32-1.73-.2-.02c-2.72-.25-5.7-1.23-7.87-3.01l-.72.83h-1.51c-5.18,0-7.84-4.01-10.83-4.01h-3.06s-1.95.17-1.95.17c.8,5.62-21.45,4.75-20.86-.17l-1.53-1.22-3.27-.38h-3.02c-.16,0-.42,0-.61.03-.8.58-1.17.95-2.22,1.35l-.63.24-5.2-.19-37.72-48.62,1.44-1.88-.62-5.8c-6.38-10.16-8.32-17.73-22.22-17.73h-3.38l.06-3.38c.04-1.98.94-3.75,2.44-5.28-4.95-6.13-8.35-22.62-23.98-22.62h-4.41l1.22-4.24c1.49-5.16,9.74-6.81,14.42-6.81h9.22c1.2,0,2.39.08,3.57.23l-.21-.31c-5.15-7.47-5.15-14.01,2.8-19.4,2.19-1.49,5.01-2.92,7.34-4.22,1.68-.93,6.42-3.81,8.1-4.26l2.01-.54,1.36,1.58c2.56,2.96,1.66,5.03,5.29,7.71,2.58,1.91,6.08,2.39,9.13,3.07,7.49,1.66,15.15,1.12,22.79,2.58.25-2.45.79-5.18,1.28-7.25.8-3.37,2.32-8.75,5.81-10.46-3.72-6.54-6.03-13.8-6.03-21.55v-.8c0-6.27,3.01-24.86,9.94-27.5,1.52-6.92,9.9-17.56,14.62-19.58l.36-.15c.22-.74.58-1.45,1.12-2.11,2.06-2.54,5.27-6.67,8.89-7.52l-.03-.08,35.59-32.6c4.08-5.92,5.52-4.33.25-20.53-1.92-5.89-2.03-10.81-.5-16.77,2.14-8.32,4.02-12.2,2.42-21.2l1.24-.35,2.01-.4.02.02c.85-.53,2.3-.17,2.83-.02v-.1s1.57.49,1.57.49l1.6-.4c.54,0,1.13-.01,1.73-.03,1.89,6.43,3.72,12.29,2.16,19.09-1.57,6.85-1.42,9.5,1.02,16.09,5.05,13.64,8.46,15.92,5.44,25.88l.32.3c2.95,2.71,6.2,6.69,8.91,9.72,1.95,2.18,3.9,4.37,5.84,6.57.77.88,2.71,2.91,3.22,3.92.25.5.43,1.02.53,1.56l.2.09c1.43.61,5.5,5.05,6.64,6.27,1.51,1.62,4.77,4.87,5.51,7.42l.17.07c2.7,1.16,7.06,7.61,9.22,10.07,3.42,3.89,5.13,5.97,5.8,9.71l1.81,1.35c6.01,4.47,13.49,23.32,13.39,30.77-.1,7.62-1.21,14.21-3.98,20.34,6.53,1.64,11.47,7.83,10.49,14.13,3.44-.35,7.28.26,10.28.66,1.63.22,3.27.43,4.91.59,2.57.24,7.91.61,9.99-1.27,1.33-1.2,1.21-3.54.98-5.14l-.54-3.79h3.82c1.58,0,3.15.15,4.7.45,12.54,2.39,22.72,13.87,18.1,26.88.55-.04,1.1-.06,1.66-.06h.8c4.6,0,14.82,2.76,15.34,8.22l.34,3.63h-3.65c-5.29,0-9.72,4.12-13.01,7.85-1.82,2.07-7.33,11.49-7.33,14.1v2.42c2.36,2.59,3.06,5.58,4.23,8.78-7.58-.42-11.69-1.38-17.34,4.84-3.48,3.83-4.66,8.38-6.8,12.94.15.59.27,1.13.27,1.9,0,1.31-.2,1.98-.49,3.18l-21.97,47.75-6.12,3.76-1.5-.54c-6.51-2.35-18.54,2.08-23.6-1.16-5.49-.74-6.89-3.48-12.67-.12-7.16,4.16-8.26,4.19-16.37,4.19h-2.12l-.89-1.93c-.88-1.89-5.25-1.77-7.7-1.7h0Zm-100.36,49.34c1.18,1.32,3.56,1.63,5.61,3.1l11.94,2.15,7.65,1.11,7.95,2.23.17-.72c4.82,3.9,18.97.91,21.21,5.26l10.41,1.69.02,1.12-8.01-.52c-2.13,3.33-1.95,1.05-5.21,1.32-1.02.08-3.19,1.55-5.18,2.06-3.26.83-7.32,2.3-7.67,6.37,1.52,2.29,7.18,2.41,10.02,2.41h1.2c4.8,0,7.73-1.41,10.82-1.61,4.3-.27,7.58-1.92,11.23-2,.92,1.46,4.61,3.61,7.22,3.61h1.2c4.02,0,4.08.8,6.82.8l1.33-2.35c2.17-.06,6.39-.72,9.01-1.02,1.24-.14,4.83,1.05,7.7,1.37,3.19.36,1.66,2.55,7.25,2.05,3.87-.35,6.8,1.5,6.8-2.86v-.4c0-1.83-.81-3.65-1.88-4.94l-17.01-5.76-.11-.82,49.07-10.93.13-.3c-3.82-.38-10.12-3.42-6.14-7.72-1.84.86-1.98-.17-4.38,0-1.73.12-2.44.95-3.92,1.33-2.14.55-1.69-.52-4.22.14-1.77.47-2.08,1.38-3.41,1.87-3.04,1.11-3.33-1.84-8.1.69-2.96,1.57-4.69-1.02-7.65,2.38-6.93,0-10.61,2.72-15.36,3.49-4.41.72-4.33,1.94-7.47,2.15-4.3.29-3.21,1.3-6.04,3.18l-6.74-2-11.94-4.11.19-.44-11.06-2.78-6.74-1.93-.21.83c-1.86-2.05-19.29-3.35-23.75-5.53-4.73-2.32-8.43-.77-12.62-2.22-2.41-.83-8.19-4.25-10.15-4.28l.37,2.98-.16-.35c-1.06-2.31-1.54-4.51-2.05-6.97-1.02-4.97-2.19-8.43-5.09-12.71-3.08-4.53-8.54-14.58-14.41-15.12-3.52-8.06-14.77-21.87-21.68-22.46l-.8-.07c-1.86-6.01-14.06-17.32-19.07-18.68l-.24-.06-15.41-14.32v-1.14c.06-8.31-5.91-28.59-14.92-30.99l-.45-.12v-.36c.18-7.75-3.73-38.34-7.57-44.25l-.98-1.51,1.14-10.95-.02-9.76,1.04-.16-6.18-39.46-2.87.46,1.19-9.58v-7.43c0-5.35-1.42-12.8-2.47-18.07-.41-2.06-1.1-5.63-2.12-9.21,4.03-4.21,9-18.92,10.33-23.2,2.71-8.75,6.78-20.14,3.72-29.19l-.76-2.26h-3.31c-.03-3.03-.4-5.72-1.24-7.64l-.61-1.39-1.45-.45c-8.01-2.49-16.72,9.63-20.56,15.17-3.75,5.41-7.36,11.42-10.34,17.3-2.09,4.13-3.88,10.55-4.56,16.6-.48-2.22-1.07-4.39-1.99-5.91l-2.9-4.79-1.93,3.32-.36-.55-2.55,1.07c-3.37,1.42-4.64,9.92-5.26,13.12-.63,3.22-1.58,7.95-1.58,11.18l-.16,12.86,1.59,6.46-1.35,2.24c-1.46,2.43-4.49,19.34-4.49,22.57v6.01c0,3.09.55,6.85,1.12,9.88.36,1.92.91,4.81,1.99,7.28l-.22.24c-2.43,2.63-4.89,15.33-4.89,19.1v4.01c0,4.84,3.27,15.24,7.62,20.86v4c0,8.39,1,20.87,5.17,28.19,1.84,3.22,4.53,9.55,7.64,14.4l-2.34-.72,3.41,6.73c1.16,3.92,1.52,8.48,2.76,12.48,1.31,4.2,2.73,7.77,4.81,11.66,1.8,3.37,4.16,6.88,6.5,9.9,2.06,2.66,5.91,5.41,7.48,7.8l.43.66c-2.57,5.93,5.17,19.46,8.05,23.95,3.42,5.32,9.43,13.23,16.13,15.31l.38.88c2.55,5.94,18.62,17.98,26.07,20.22l1.04,3.39c1.65,5.39,18.72,14.07,24.08,16.22,6.8,2.71,10.36,2.78,17.5,1.57,2.15-.36,4.31-1.09,6.36-1.81,1.98-.7,5.3-2.09,7.33-2.3l.25-.03,13.85-3.57h0Zm78.71-101.05h9.08l-9.08-.79v.79Z"/>
  <path class="cls-9" d="m463.84,252.61c-.12-8.84,5.86-34.83,8.59-43.95,1.48-4.95,11.01-38.45,13.47-39.47.2.29,5.85,17.61,6.98,20.29,2.84,6.75,4.57,13.5,7.18,20.09,2.41,6.08,11.58,37.55,11.9,43.04-2.12-.04-7.18-2.89-9.63-3.2-3.54-.46-7.74-1.61-11.23-1.61h-6.41c-3.11,0-8.16,1.03-11.32,1.51-2.69.41-7.73,3.26-9.53,3.3h0Zm27.27-81.01c3.42,11.82,11.5,27.7,13.91,39.43,2.73,13.29,10.12,28.47,10.95,41.98,2.97-.06,10.48-3.61,15.64-3.61h6.82c5.15,0,12.37,3.16,14.84,3.21-2.67-8.57-54.63-76.06-62.15-81.01h0Zm-32.48,81.41c-.29-11.26,5.08-33.24,8.54-43.99,2.01-6.24,4.79-13.93,6.47-20,1.05-3.78,7.39-16.98,7.44-18.62-2.78,1.1-30.18,32.64-35.09,37.5-6.5,6.44-25.22,36.66-27.47,45.12,3.36,0,10.51-3.61,14.84-3.61h11.23c4.91,0,9.71,3.61,14.03,3.61h0Zm56.54-81.81c4.25-2.64,78.41,27.37,88.08,32.22,19.75,9.92,59.21,31.76,70.32,50.79-2.87-.24-7.97-3.21-11.23-3.21h-9.22c-10.31,0-7.42,8.77-17.39-5.07-3.27-4.54-9.43-10.57-13.58-14.49-10.02-9.47-20.03-16.83-31.65-24.09-9.44-5.9-26.38-15.31-36.55-19.19-3.66-1.4-38.32-16.52-38.78-16.96h0Zm46.11,81.81c3.24,0,9.36-3.61,13.64-3.61h9.22c2.52,0,9.1,3.15,12.03,3.21-3.53-4.88-17.28-19.33-21.98-23.34-6.64-5.67-18.47-15.39-24.13-21.19-5.12-5.25-48.41-35.87-53.75-36.88,1.67,3,13.84,15.22,17.16,19.33,5.44,6.73,11.2,13.5,16.82,20.08,8.58,10.03,26.22,30.97,30.98,42.41h0Zm-57.74-83.01c.72,1.23,29.06,19.84,32.91,22.43,9.98,6.73,21.98,15.99,31.09,23.85,10.25,8.84,18.97,16.79,28.08,26.86,1.8,1.99,4.77,5.6,6.18,7.82,3.3,5.19,2.87,2.86,7.92.75,8.49-3.55,17.08.85,23.75,1.3-7.44-13.44-44.39-39.68-58.26-48.41-9.43-5.93-24.48-14.36-34.66-18.68-11.08-4.7-26.76-10.71-37-15.93h0Zm-90.63,83.82c.31-.38,3.86-11.19,5.18-13.67,2.29-4.31,4.03-7.77,6.62-11.83,4.72-7.39,10.03-14.82,15.92-21.38,4.03-4.49,36.77-36.65,36.85-37.74-9.05,3.31-43.9,30.35-53.8,37.64-8.27,6.09-43.99,37.95-45.65,45.78,1.57,1,6.9-2.41,10.83-2.41h8.02c7.1,0,12.38,3.29,16.04,3.61h0Zm-77.79.8c-6.15,0-9.57-3.61-16.04-3.61h-6.01c-2.8,0-8.24,1.7-11.23,2.41,9.15-11.55,58.66-41.2,73.43-48.48,14.87-7.34,73.02-34.93,86.17-35.74-1.96,2.06-29.15,13.92-34.99,17.94-9.43,6.48-24.03,12.68-32.89,20.05-8.79,7.31-21.34,14.1-30.86,22.07-4.97,4.16-25.67,20.85-27.57,25.37h0Zm372.53-5.21c-5.98-.4-9.83-1.04-15.65,1.19-3.9,1.49-8.92,5.96-11.81,3.09-6.51-6.48-10.8-11.2-17.94-17.43-13.78-12.02-27.18-18.73-42.39-28.19-16.06-9.99-31.71-14.71-48.8-21.78-6.9-2.86-49.83-17.32-51.49-18.69,14.6,1.84,39.51,9.19,54.24,13.53,17.33,5.1,32.71,11.67,49.41,17.96,21.58,8.13,70.54,32.56,84.42,50.32h0Zm-335.24,3.61c1.17-10.01,36.84-42.21,46.15-47.69,6.05-3.56,21.23-14.97,27.28-19.64,4.02-3.11,28.47-17.65,28.83-18.09-5.29-3.25-62.95,31.83-71.25,37.02-7.08,4.43-59.8,44.61-60.68,48,2.4,1.52,7.3-1.6,10.03-1.6h9.62c4.1,0,4.55,2.01,10.02,2.01h0Zm-77.39,1.6c9.7-15.2,59.88-44.93,77.28-52.65,14.26-6.34,30.65-13.61,44.6-20.36,6.11-2.96,47.39-16.9,47.74-17.22-2.75-1.63-49.06,10.69-55.74,12.83-13.79,4.4-38.03,12.4-50.21,19.17-4.55,2.53-18.76,9.42-23.54,11.34-6.2,2.49-15.92,8.8-22.17,12.32-5.6,3.15-38.38,25.17-40.82,28.56l3.6-.04,2.01.04c7.07,0,11.59,6.02,17.24,6.02h0Zm186.07-1.2l2.01-.4.02.02c.85-.53,2.3-.17,2.83-.02v-.1s1.57.49,1.57.49l1.6-.4c3.65,0,9.12-.72,10.79,2.04,6.26-.2,11.72,8.99,15.57,6.71,5.12-3.04,11.02-5.48,17.09-6.2,6.68-.79,13.39.9,19.26,3.72,10.59,5.08,4.47,4.92,14.8-.94,15.44-8.77,32.93,4.02,36.6,2.15,6.64-3.38,10.85-5.11,18.83-4.06,4.87.64,5,.74,9.42,2.2,2.71.9,5.32,3.57,8.02,3.61,1.51-.56,6.1-3.79,9.11-4.93,3.37-1.27,8.87-.96,12.5-.64,6.66.59,14.94,4.87,18.78,9.06,11.5-5.02,15.94-20.46,34.14-7.96,20.88,14.34-6.66-14.17-9.49-16.85-13.51-12.75-46.82-31.11-64.22-38.43-10.93-4.6-24.75-11.63-35.76-15.17-12.98-4.18-25.78-8.4-38.84-12.49-13.9-4.36-27.22-7.06-41.47-9.86-6.47-1.27-15.59-2.62-22.2-3.47-10.3-1.32-9.22-4.79-16.53-9.14-3.09,6.4-24.71,9.52-31.66,10.45-6.44.86-11.58,2.11-17.8,3.45-2.23.48-7.24.63-9.09,1.34-1.66.63-6.61,2.34-8.16,2.67-6.21,1.32-10.4,2.32-16.32,4.53-4.34,1.62-11.75,4.41-15.88,5.38-3.65.86-29.37,10.44-30.22,12.29-6.33-.08-49.33,23.77-56.4,29.01-3.27,2.42-10.02,6.05-12.72,8.53-3.19,2.94-8.34,7.15-11.86,9.8-4.09,3.09-19.72,18.16-20.47,22.44,10.89-4.63,11.9-12.97,26.56-6.52,19.99,8.79,3.55,7.46,25.63,1.78,11.89-3.06,24.82,7.28,29.89,4.25,7.73-4.62,23.2-5.74,31.57-1.68,6.96,3.38,16.2-8.93,28.73-6.27,4.4.93,9.77,3.02,13.73,5.14,5.83,3.13,7.14-.58,13.54-1.89,10.3-2.11,21.47-2.61,30.71,3.69,6.21,4.23,6.33,1.04,12.17-2.11,4.94-2.65,8.27-3.73,13.64-5.22h0Zm-146.37,205.33c-2.94,0-10.28,1.13-11.23,4.41,19.51,0,23.82,23.3,27.66,24.86,2.19-.56,8.21-4.4,11.64-4.4h3.61c2.88,0,5.45,2.12,8.82,2.41l-.44-8.02c-6.97-9.28-18.07-19.26-30.84-19.26h-9.22Zm42.91,10.43c0,15.65-.31,22.81,9.21,35.3,1.37,1.79,8.38,11.37,9.73,12.32,1.18.84,18-1.4,19.15-1.91-.41-.76-9.14-9.24-10.51-10.74-2.92-3.21-7.09-8.09-9.59-11.27-4.64-5.9.55-5.21-8.58-12.27-4.6-3.55-7.27-9.83-9.41-11.44h0Zm232.98,19.25c0-3.61,5.77-13.58,8.16-16.3,4-4.53,9.1-8.97,15.49-8.97-.28-3.02-9.16-5.21-12.03-5.21h-.8c-12.19,0-24.01,10.56-30.07,20.46l-1.02,9.24c3.47-.91,1.04-2.43,5.02-2.43h6.82c4.78,0,6.27,3.02,8.42,3.21h0Zm-54.94,29.28c3.86,0,17.16.98,19.49-1.36.38-.38,6.63-12.08,7.07-13.38,5.5-15.98,7.12-15.34,7.12-33.79-1.85,1.24-6.07,8.94-8.92,11.93-4.54,4.75-6.05,6.19-7.51,12.94-.65,3.01-5.99,9.43-7.76,12.69-2.44,4.5-7.7,8.34-9.49,10.97h0Zm-163.21-.4c-6.51,0-10.41-4.01-14.03-4.01h-1.2c-1.64,0-2.14.45-3.61.8-6.74-10.61-9.29-19.65-25.26-19.65.14-7.94,26.17-11.77,28.39-3.52,1.58,5.88,4.43,9.02,6.72,14.13,1.83,4.1,8.47,8.02,9.01,12.25h0Zm198.5-1.2l-12.67.08,8.71-17.03,2.05-7.42c3.92-3.01,8.49-6.19,14.05-4.63,2.32.65,10.02,6.31,10.31,8.94-9.3,0-9.55.12-15.06,6.19-4,4.41-5.03,8.85-7.39,13.86h0Zm-79.02-9.25c3.92-.25,10.4-8.49,12.3-10.96,6.02-7.79,6.57-4.59,6.57-16.69-3.21.26-4.9,6.88-12.14,7.91-5.8.82-9.94,1.91-14.32,5.73l-.37.2,7.97,13.81h0Zm8.44,13.66c2.23-3.09,3.75.75,2.01-5.62,9.4-8.55,12.01-10.92,19.34-21.57,7.05-.73,9.13-4.73,9.13-11.32,4.64,1.27,2.14,11.05.17,13.8-2.46,3.43-5.22,7.3-8.24,10.21-8.34,8.06-10.52,14.48-22.41,14.48h0Zm-109.47-42.51c.04,16.75,30.45,35.01,31.68,38.5l.12.91-7.34.69c-1.5-2.23-3.33-1.32-5.56-3.26-1.62-1.42-2.48-2.81-4.33-4.5-2.22-2.03-8.03-6.68-9.45-8.6-2.05-2.77-6.05-7.65-7.4-10.64-1.41-3.13-2.84-11.7,2.27-13.1h0Zm13.23,3.21c-3.78,1.08-7.44,6.94-4.72,10.33,1.34,1.67,6,7.23,7.62,8.82,2.41,2.38,16.84,14.71,18.59,14.38.9-.17,4.53-2.81,5.11-3.41,1.72-1.78-1.12-2.41-3.19-3.82-2.55-1.74-5.67-4.9-9.15-7.29-3.49-2.4-4.97-6.8-8.62-8.22-5.63-2.19-5.65-5.17-5.65-10.79h0Zm90.23,28.47c.03-.34,12-12.32,13.53-14.14,2.79-3.29,3.02-5.14,5.04-8.6,1.22-2.1,2.06-1.78,3.52-3.3,1.61-1.67,1.86-3.41,2.77-4.44,2.05,1.4,2.01,4.15,2.01,6.41v.4c0,7.32-6.41,13.3-10.73,18.55-1.85,2.25-5.09,4.91-7.55,6.89-3.66,2.95-5.51,2.47-8.59-1.78h0Zm-71.78-30.88c-3.92,2.83-.93,10.23,1.34,12.7,3.46,3.76,6.14,4.43,9.56,7.28,3.95,3.29,3.75,8.62,8.5,3.84,2.76-2.78,5.72-7.57,4.41-11.94-5.12-1.53-8.34-.3-14.65-3.4-3.82-1.88-7.4-4.91-9.17-8.48h0Zm-44.54-4.04c1.58,2.2,2.55,8.08,5.08,11.83,2.19,3.25,4.4,7.65,6.45,10.39,2.42,3.23,16.14,16.49,16.2,18.04l-5.64,1.08c-.66-1.35-14.42-14.9-17.24-18.45-3.07-3.86-5.59-6-7.12-10.52-1.23-3.63-3.32-10.51,2.28-12.37h0Zm137.98,42.95l-.4,2h-2.81c2.04-4.15,13.7-13.12,17.02-18.27,2.23-3.45,4.53-7.35,6.61-11.03,1.21-2.13,2.09-3,3.33-5.49.88-1.76,2.02-6.06,2.29-6.5,3.43,2.01,2.09,9.84.6,13-2.33,4.96-3.19,6.8-6.56,11.08-2.42,3.07-5.32,6.68-7.95,9.69-5.75,6.58-2.44,5.51-12.14,5.51h0Zm10.83,0c.81-2.97,12.2-13.84,14.67-19.02,3.96-8.3,9.79-14.96,9.79-24.29,8.8-.04-3.11,23.86-4.67,26.21-4.61,6.97-10.37,17.1-19.8,17.1h0Zm-112.27-38.09c-15.07,9.53,14.24,23.14,18.04,28.87l.21.44,4.38-2.07-.18-.37c-3.15-4.8-8.78-8.33-13.22-11.65-6.68-4.99-6.23-10.48-9.23-15.22h0Zm18.07-3.25c1.96,1.6,1.99,4.53,6.36,5.32l.03,1.51,4.91.58,2.31,4.66c-5.11,0-9.59-1.36-14.03-3.61,0-2.78-1.34-6.47.43-8.46h0Zm50.89,13.67c.08-3.41,3.54-5.84,6.65-6.99,3.32-1.22,5.36-5.97,6.98-6.65l.04,4.85c-2,1.77.43,3.99-6.09,5.14-3.23.57-5.1,3.43-7.58,3.65Z"/>
  <path class="cls-11" d="m485.94,253.02c-.53-.16-1.97-.51-2.83.02,6.59,8.32-.43,21.45,2.16,32.68,1.24,5.38,3.13,10.03,4.43,15.2,1.96,7.79-.66,8.92-2.96,15.51-5.14,14.71-2.69,18.98.53,33.04,2.49,10.88-3.4,20.88-7.57,30.51-12.09,27.86,15.06,29.62,4.28,61.63-4.01,11.91-5.67,21.09-2.53,33.62,1.34,5.35,3.18,10.57,3.54,16.11.41,6.42-.36,12.75.5,19.15,2.89-2.6,1.56-13.43,1.62-17.66.08-6.35-2-9.99-3.66-15.99-3.11-11.27-2.27-22.77,1.6-33.77,11.88-33.75-14.84-34.02-3.9-62.45,4.1-10.64,10.09-17.9,7.78-30.36-2.58-13.86-5.88-18.6-.78-33.23,6.33-18.16,4.1-12.1-.98-29.99-1.89-6.66-1.61-10.44.11-17,1.31-5.01-.54-11.63-1.33-17.01Z"/>
  <path class="cls-5" d="m653.12,496.44l8.07,5.26c2.83-2.45,3.9-4.86,7.97-4.86h.8c4.06,0,7.26,1.31,9.55,4.49,3.4,4.73-.32,7.57-.32,11.15h4.81c4.13-9.04,4.35-7.97,13.44-12.09l-1.01-3.55c-1.97-1.74-3.24-6.42-7.22-6.42h-2.01c-3.61,0-5.67,2.63-7.62,2.81,0-4.31-.76-11.37-4.81-12.83l-.4-.57-9.25,6.54.49-.46-10.48-9.12-3.21-.8v1.6c0,2.05.8,2.36.8,4.41l.07,10.84-.45,3.14.78.46h0Zm-24.86-192.1l-5.77,1.84.16.56c.65,1.59,14.26,7.71,16.91,12.89l10.36,1.95,4.49-1.21-.48-4v-1.2c0-4.54,4.09-10.03,8.42-10.03h1.6c2.32,0,5.12,2.2,6.42,4.01,4.48-.33,0-4.42,0-7.62v-4.01c0-2.72,1.83-4.85,2.04-6.85l-.9-1.15-2.34-.02c-3.19,0-7.05-.93-9.93.9-4.07,2.59-2.32,4.92-3.71,7.92l.15-.41-13.05-4.89-.33.89c-.94,1.43-2.01,3.86-2.01,5.62v4.81l-4.01-.43-2.41.03-5.61.4h0Zm-84.21,312.41c-4.76,5.14,5.22,8.5,8.02,7.62h1.2c2.49,0,6.87,3.4,9.22,3.61,2.73-1.81,4.51-3.21,8.02-3.21h3.61l3.2.48.81-6.49c-2.56-5.54-2.44-6.01-9.62-6.01.56-2.35,2.41-4.72,2.41-6.82v-2.41c0-2.4-1.43-2.81-3.61-2.81h-2.01l-3.19.47-1.22-.07v-2.81c0-1.37-2.85-9.28-3.61-10.43l-10.55,15.7-.32-.33-2.37,13.51h0Zm117.09-280.73l3.37-11.76,1-.67,12.07,5.62v-1.6c0-6.8,5.88-8.02,12.03-8.02l3.98.95.03,1.05c0,2.4-2,5.09-2,8.02v3.61c0,2.59,2.13,4.26,2.44,6.85l-2.44,3.17-3.22,3.56-.39-.36c-2.49-3.67-5.54-9.73-11.79-6.18-8.6,4.9-4.93,6.22-6.91,12.37l-6.96.62-15.5-14.2c.87-3.53,10.55-3.04,14.29-3.04h0Zm-1.6,32.08l-1.75,1.01,13,17.55-.54.44,6.16,1.46.78-1.61c1.08-4.49,5.14-7.95,9.28-8.39,8.17-.87,7.43,4.67,9.56,7.99l8.02-6.42c-.15-1.66-.8-2.7-.8-4.41v-2c0-4.93,4.33-10.7,4.42-12.11l-2.81-1.93c-2.56,0-2.93-1.2-5.61-1.2h-1.6c-5.63,0-5.99,6.18-7.61,8.01l-9.94-7.84-.49.64c-5.28,1.31-4.08,8.01-5.61,10.41l.05-.47-14.49-1.14h0Zm-81,222.58c-.54-1.18-.4-.55-.4-2l.07-.8.92-9.61.33.3,10.71-16.36c1.24.81,4.41,8.28,4.41,10.43v3.71s4.01-.51,4.01-.51h3.21c2.18,0,3.61.41,3.61,2.81v2.01c0,3.62-2.58,5.53-2.81,8.02,7.95,0,5.88.36,10.43,4.41v9.34s-4.81-.52-4.81-.52h-4.41c-5.08,0-5.5,2.53-8.03,3.24l-7.61-3.64-1.58-.46c-.02-5.85-2.01-9.83-8.04-10.37h0Zm86.22-186.48l-2.72.38,11.54,21.27,10.83,2.81c1.99-4.28,3.98-7.62,9.62-7.62h1.2c4.53,0,5.66,1.72,8.1,4.56l3.53-1.75c.37-.59-.03-7.88,1.74-11.5,2.03-4.16,5.48-4.31,3.88-8.55-2.09-.97-5.36-3.21-7.62-3.21h-1.6c-4.41,0-6.39,4.5-8.42,6.82-1.86-2.71-6.42-9.58-10.32-9.12l-.47-.27-5.76,9.9.63-.13-14.16-3.59h0Zm10.83,60.96c1.87-.51,2.37-1.61,4.81-1.61h2.01c3.86,0,7.48,2.15,8.42,6.02l1.2,2.01c2.73-.06,4.89-1.61,7.51-2.12,5.49-1.07,2.96-1.32,4.51-5.51,2.15-5.84,7.95-6.85,10.19-10.11l-1.75-2.72c-6.95-6.66-8.18-7.16-16.01-.77l.39-.2-5.99-11.52-.81.42c-5.56.34-6.03,4.96-9.27,7.26l.36-.56-12.79-7.86-2.11-.06,4.51,21.18-.86.19,5.67,5.96h0Zm-40.5,60.56l4.39-21.53-.79-.24,2.41.11c3.26,2.91,9.11,8.37,9.09,13.26l12.25-4.51.32.87c.82,1.64,2.41,4.22,2.41,6.02v5.21c0,1.15-.16,1.42-.4,2.41.97-.45,3.71-1.2,4.81-1.2h3.21c4.03,0,6.7,4.67,7.62,8.02l1.35,4.42-.42.11c-3.5,1.28-5.18.11-10.55,2.69-3.21,1.55-4.87,4.56-6.42,6.82l-6.42-.75-.79-.85c1.91-4.05,3.29-4.85.71-9.93-1.28-2.52-4.99-4.91-7.93-4.91h-3.21c-4.02,0-2.94,1.32-6.03,1.99l-5.6-8.01h0Zm-24.46,39.7c1.18-.54.55-.4,2-.4h.8c4.1,0,11.59,5.67,8.82,10.03l.1,1.74,9.93,3.47c4.3-3.05,1.92-2.43,7.72-4.71,4.3-1.69,8.3-.11,11.44-1.18l.09-3.74c0-4.14-2.91-10.83-7.62-10.83h-3.61c-1.14,0-1.42.16-2.41.4l.69.06,1.25-14.83-.81-.5-12.39,1.85c.03-7.98-4.5-10.69-4.78-13.85-1.9-2.13-2.7-3.83-4.02.79-.72,2.54-1.69,4.2-2.4,6.43-1.01,3.17-4.24,9.34-6.29,11.23l.28,14.04h1.2Z"/>
  <path class="cls-5" d="m410.51,402.6c0,13.93,8.15,26.17,18.15,35.18,4.25,3.82,27.28,20.35,31.57,21.36,2.89-8.79,9.92-17.47,12.25-25.45,1.67-5.73,3.48-10.3-3.79-12.29-4.48-1.23-8.8-3.61-12.85-5.99-12.52-7.35-34.29-23.34-37.31-38.08-4.99,1.08-8.02,19.92-8.02,24.46v.8h0Zm22.54-44.83c5.38,9.31,5.38,9.48,13.65,17.45,3.15,3.04,5.78,4.3,8.99,6.65,2.49,1.83,8.85,4.7,10.09,5.86l-.33,3.23v4.01c0,7.2,6.68,19.22,6.82,25.67-11.1-2.42-30.51-16.7-39.01-24.75-4.03-3.82-11.87-13.84-13.01-19.13-.95-4.39,8.66-17.23,12.81-19h0Zm43.22,5.93l-9.65,21.68c-6.4-.94-36.16-24.24-30.81-30.84,10.19-12.58,8.28-3.77,16.55,1.39,7.39,4.61,14.36,7.78,23.91,7.77h0Zm1.2-7.22c0-5.96-3.05-13.05-3.74-19.12-1.3-11.25-.73-8.32,1.74-18.58l-29.53,27.05c3.2,9.41,22.29,15.86,31.14,15.86l.52-4-.12-1.22h0Zm21.25-.8c4.22-.08,18.55-14.72,16.06-19.64-.29-.57-15.75-17.87-17.26-19.26-4.04,4.79-4.37,12.56-3.09,19.14.7,3.59,3.16,17.29,4.3,19.76h0Zm-4.41,31.28c.1-5,5.61-14.03,5.61-21.26l.08-3.22-.48-4c2.85-2.49,7.57-4.77,10.33-8.12,4.06-4.93,3.96-6.04,7.31-11.13.5.21,10.3,10.02,10.28,11.58-.05,5.05-4.74,10.94-7.8,15.37-3.82,5.53-18.89,18.94-25.34,20.78h0Zm7.62,30.88c-3.82-8.07-8.03-19.58-8.02-28.47,5.4-1.28,17.21-10.79,21.16-14.93,3.45-3.6,5.45-6.43,8.38-9.67,4.09-4.53,3.9-7.77,6.03-11.78,1.53.65,6.35,7.29,8.03,9.21,4.21,4.8,5.31,6.02,5.31,12.33v2.01c0,11.47-7.3,18.52-15.52,25.38-6.01,5.02-17.64,14.67-25.38,15.92h0Zm-1.6,47.32c9.75-2.43,39.42-25.84,46.7-33.91,7.98-8.85,10.51-17.85,10.67-29.47.09-6.26-6.92-24.24-12.05-28.05,0,6.83-.09,7.51-2.84,13.6-1.73,3.83-5.08,6.71-6.3,9.74-.29.09-13.28,10.98-15.19,12.48-3.51,2.75-13.28,9.45-17.37,9.9-.17,8.7,4.41,11.32,4.41,18.05v2.01c0,7.86-8.05,17.96-8.02,25.67Z"/>
  <path class="cls-2" d="m621.84,532.94c.28,3.16,4.81,5.87,4.78,13.85,4.13-.62,8.26-1.23,12.39-1.85.27.17.54.33.81.5-.42,4.94-.83,9.89-1.25,14.83-.23-.02-.46-.04-.69-.06.99-.24,1.26-.4,2.41-.4h3.61c4.71,0,7.63,6.69,7.62,10.83.79-.55,1.58-1.09,2.37-1.64,3.68.05,8.12-6.63,9.1-9.35,1.25-3.46.44-4.24-1.09-7.02-1.3-2.37-4.08-2.7-5.74-3.7.32-.79.65-1.58.97-2.36,1.91-4.05,3.29-4.85.71-9.93-1.28-2.52-4.99-4.91-7.93-4.91h-3.21c-4.02,0-2.94,1.32-6.03,1.99-1.87-2.67-3.73-5.34-5.6-8.01-7.63-2.67-12.3,2.64-13.23,7.22h0Zm19.25-28.87c.09-5.23,8.26-10.08,14.55-5.98,1.85,1.21,3.7,2.41,5.55,3.62,2.83-2.45,3.9-4.86,7.97-4.86h.8c4.06,0,7.26,1.31,9.55,4.49,3.4,4.73-.32,7.57-.32,11.15h4.81c8.8,0,5.26,20.68-3.61,21.66-.92-3.35-3.59-8.02-7.62-8.02h-3.21c-1.1,0-3.84.76-4.81,1.2.24-.99.4-1.26.4-2.41v-5.21c0-1.79-1.58-4.37-2.41-6.02-.11-.29-.21-.58-.32-.87-4.08,1.5-8.17,3.01-12.25,4.51.03-4.9-5.82-10.35-9.09-13.26h0Zm36.09-117.1c-.11.9-.21,1.8-.32,2.7-3.97.63-7.94,1.26-11.91,1.9-.12.16-.25.31-.37.47-.2,3.91-.41,7.82-.61,11.72.26.15.52.31.78.46,4.72,1.2,9.44,2.39,14.16,3.59-.21.04-.42.09-.63.13,1.92-3.3,3.84-6.6,5.76-9.9.16.09.31.18.47.27,3.9-.46,8.46,6.41,10.32,9.12,2.03-2.31,4.01-6.82,8.42-6.82h1.6c2.26,0,5.53,2.24,7.62,3.21.05-.09-.83-3.49-.81-5.21.04-2.69.2-4.36-.5-6.71-1.05-3.49-3.48-6.93-7.51-6.93h-1.2c-4.15,0-4.7,2.7-6.42,1.6-2.14-3.32-1.39-8.86-9.56-7.99-4.14.44-8.2,3.9-9.28,8.39h0Zm-4.01,81.81c-5.9-3.38-14.71-6.46-18.04,8.02,3.49,3.04,6.99,6.08,10.48,9.12-.16.15-.33.3-.49.46,3.08-2.18,6.17-4.36,9.25-6.54.13.19.27.38.4.57,4.05,1.47,4.81,8.53,4.81,12.83,1.95-.18,4.01-2.81,7.62-2.81h2.01c3.98,0,5.25,4.67,7.22,6.42,4.88-7.66,8.84-20.85-4.81-20.85-.08,0-.17,0-.25-.01-.18-2.14-.37-4.27-.55-6.41-1.83-7.55-15.39-8.47-17.64-.8h0Zm-10.83-115.5c-1.5.03-3.61,4-3.61,6.02,0,1.34-.02,2.68-.02,4.01.27,1.6.55,3.2.82,4.81,4.83.38,9.66.76,14.49,1.14-.02.16-.03.31-.05.47,1.53-2.4.34-9.1,5.61-10.41.16-.21.33-.43.49-.64,3.32,2.61,6.63,5.22,9.94,7.84,1.62-1.84,1.98-8.01,7.61-8.01h1.6c2.69,0,3.05,1.2,5.61,1.2-2.66-11.05.68-7.09-6.02-16.88-2.41.15-4.81.29-7.22.44-1.07,1.19-2.15,2.37-3.22,3.56-.13-.12-.26-.24-.39-.36-2.49-3.67-5.54-9.73-11.79-6.18-8.6,4.9-4.93,6.22-6.91,12.37-2.32.21-4.64.42-6.96.62h0Zm8.02-44.11c-1.3-1.81-4.1-4.01-6.42-4.01h-1.6c-4.34,0-8.42,5.48-8.42,10.03v1.2c.16,1.33.32,2.67.48,4-1.5.4-2.99.81-4.49,1.21-.78.29-1.56.58-2.34.87-.18,1.75-2.07,3.15-2.07,6.35v.8c.06.24.11.48.17.72,1.01,2.03,2.03,4.06,3.04,6.1,3.11,0,2.09-.8,4.41-.8,2.14-.02,4.28-.05,6.43-.07.53.16,1.06.31,1.59.47,1.12-3.92,2.25-7.84,3.37-11.76.33-.23.66-.45,1-.67,4.02,1.87,8.05,3.75,12.07,5.62v-1.6c0-6.8,5.88-8.02,12.03-8.02h1.2c-1.04-3.8-2.1-5.53-3.39-8.64-2.29-5.52-3.86-3.48-5.43-6.6-1.87,0-3.75,0-5.62,0-.29.66-.58,1.33-.86,1.99-.78,0-1.56.02-2.34.03.2.19.4.37.59.56-1.13.75-2.27,1.49-3.4,2.24h0Zm-80.2,253.06c4.6-4.52,12.06-6.98,15.64,0,0,2.62.11,3.61,2.81,3.61h.4c.53-.13,1.07-.27,1.6-.4,1.18-.54.55-.4,2-.4h.8c4.1,0,11.59,5.67,8.82,10.03-.75,1.36-1.51,2.71-2.26,4.07,7.97,7.11,8.88,15.11-6.96,20.79v-6.82c-4.55-4.05-2.48-4.41-10.43-4.41.22-2.5,2.81-4.4,2.81-8.02v-2.01c0-2.4-1.43-2.81-3.61-2.81h-3.21c-1.33.17-2.66.34-4,.51,0-1.24-.01-2.48-.01-3.71,0-2.15-3.17-9.62-4.41-10.43h0Zm-32.88,25.67c.76,1.15,3.61,9.06,3.61,10.43v2.81c.41.02.81.05,1.22.07,1.06-.16,2.13-.32,3.19-.47h2.01c2.18,0,3.61.41,3.61,2.81v2.41c0,2.1-1.85,4.46-2.41,6.82,7.18,0,7.06.48,9.62,6.01.15,1.07.3,2.14.45,3.21.09.19.17.28.26.47,2.96.99,17.91-10,5.72-17,.51-1.07,1.02-2.14,1.53-3.21l.48-1.17c-.02-5.85-2.01-9.83-8.04-10.37-3.62-6.78-10.71-9.95-21.25-2.81h0Zm111.08-149.99c4.26,2.62,8.53,5.24,12.79,7.86-.12.19-.24.37-.36.56,3.24-2.3,3.71-6.92,9.27-7.26.27-.14.54-.28.81-.42,2,3.84,3.99,7.68,5.99,11.52-.13.07-.26.14-.39.2,7.83-6.39,9.06-5.9,16.01.77,5.9-5.5,10.57-19.56-8.32-21.11.05-1.04.1-2.08.15-3.11l-.97-1.3c-2.44-2.84-3.57-4.56-8.1-4.56h-1.2c-5.64,0-7.64,3.34-9.62,7.62-2.48-.64-4.96-1.29-7.44-1.93-9.3-2.41-12.39,8.26-8.6,11.15h0Zm-40.1-133.55c-1.47.17-2.93.34-4.4.51.15-.15.31-.29.47-.43-6.52-9.66-2.13-11.08,6.08-15.51-1.07-4.01,3.09-20.33,18.41-8.19,10.19-11.52,20,1.32,20.35,8.78-3.19,0-7.05-.93-9.93.9-4.07,2.59-2.32,4.92-3.71,7.92.05-.14.1-.27.15-.41-4.35-1.63-8.7-3.26-13.05-4.89-.11.3-.22.59-.33.89-.94,1.43-2.01,3.86-2.01,5.62v4.81c-1.34-.14-2.67-.29-4.01-.43-.8.01-1.61.02-2.41.03-1.87.13-3.74.27-5.61.4h0ZM485.71,57.92l5.64,17.48,18.37-.03-14.88,10.77,5.71,17.46-14.84-10.83-14.84,10.83,5.71-17.46-14.88-10.77,18.37.03,5.64-17.48Z"/>
  <g>
    <path class="cls-8" d="m577.33,525.32c5.91,0,10.73,4.96,12.43-1.2-1.58-2.16-6.71-2.41-9.22-2.41h-6.42c-4.66,0-6.78,2-12.83,2h-4.41c-6.6,0-5.04-2.41-11.63-2.41h-2c-3.16,0-9.47-.35-10.83,2.41-4.37,0-6.6,3.21-11.23,3.21h-2.81c-5.39,0-7.12-2.29-10.63-3.41-6.45-2.06-6.13-.21-11.83-.2l.09,4.15,5.11-.61,5.63.07,5.6.52c4.64,4.44,12.93,2.97,18.54.37,7.71-3.59,13.05-.89,20.77-.89h8.42l13.17-1.97,4.07.37h0Zm-191.25-1.97c1.68-2.44,6.51-.23,9.51.05,3.74.35,5.26,1.14,8.06,3.57l15.3.36-.13-.9,9-2.43c3.14-.17,10.51,1.04,13.31,2.79,4.25,2.65,9,1.77,13.91,1.75,2.35-3.62,15.72-1.22,20.04-1.21v-2.01c-6.88-4.32-15.94,0-23.66,0h-2.41c-7.96,0-4.32-1.05-9.44-2.19-4.19-.93-4.4-1.14-9.34-1.89-9.96-1.51-9.48,1.93-18.18,2.8-10.43,1.04-12.86-3.87-18.36-3.95-4.02-.06-16.48-1.18-19.25,2.43l2.93,2.19-.03.63,8.74-2h0Zm18.42,23.63c6.9,0,9.36,1.44,15.08,3.37,3.45,1.17,12.28-.04,14.2-2.97,6.71,0,6.45-.17,12.1,1.54,3.44,1.04,5.92,3.68,9.56,3.68h1.6c2.93,0,6.74-1.22,9.6-2.03,7.66-2.18,2.61.02,9.25.03v-2.81c-9.46-5.07-12.01,2.03-21.68,1.23-6.12-.51-12.11-7.11-21.19-4.4-8.49,2.54-13.36,4.24-21.75.42-4.34-1.98-18.75-4.24-21.2,1.05l2.91,2.82c2.12.05,3.56-1.91,8.32-1.91h3.21Zm92.23-9.22v-2.41c14.31-3.52,20.12,5.69,28.19,1.72,2.1-1.04,10.54-3.96,13.02-4.22,5.34-.57,9.5-1.75,14.13,1.69l.04.43,19.21-2.04h1.2c2.57,0,8.86,1.44,10.76,3l-1.94,3.02c-9.07-3.29-9.39-2.19-18.29-1.04-10.72,1.38-11.01-1.76-19.01-1.76h-2.81c-9.74,0-15.06,4.55-21.26,5.23-4.97.54-6.11-2.55-9.99-3.25-4.13-.75-9.01-.37-13.27-.37h0Zm26.87,12.83c6.09,0,7.66-3.21,14.44-3.21h1.6c1.73,0,2.4.69,3.21,1.6l6.42.38.4.02,16.04-.67,3.6-.13c4.72,0,3.66,2.01,7.22,2.01l1.01-3.95c-7.26-3.57-11.81-1.73-19.2-.6-10.53,1.62-9.62-2.67-17.5-2.67h-.4c-5.74,0-11.42,4.03-15.26,3.99-1.98,3.04-5.57,2.02-9.2,2.02-1.93-1.87-4.36-4.01-8.02-4.01h-5.61l-5.6.52-.52,3.07,6.52.15,3.61-.13c3.97,0,5.9,3.61,10.43,3.61h2.81l3.6-.45.41-1.55h0Zm-113.68-13.04c-3.32-1.48-7.5-3.01-11.42-3.02-6.77-.01-6.88,1.98-12.86,2.03l-1.73-2.73c2.75-1.04,9.29-1.71,12.16-1.69,8.19.04,5.1.98,11.22,2.82,13.61,4.1,15.1-2.02,23.25-2.05,7.48-.02,15.61,5.58,22.79,4.78,4.97-.55,20.81-7.16,20.54.86-11.21-1.83-11.57,1.74-20.06,1.63-7.4-.09-11.66-4.04-19.24-4.04h-.4c-10.37,0-14.33,5.83-24.25,1.4h0Zm101.65,35.5c7.47,0,7.89.21,14.7-3.75,7.62-4.42,9.18-.68,15.71-.2,2.18,3.29,15.14-1.73,23.35,1.24l2.48-1.53-1.19-3.43c-3.6.05-6.83-.08-10.26.33-3.89.47-5.58,1.26-8.36,1.68-7.39,1.09-10.41-5.46-16.41-3.19-5.43,2.06-9.05,5.28-15.23,5.27-5.34-.01-9.6-5.4-16.17-3.38l-.29,3.35c4.39,0,9.79-.45,11.67,3.61h0Zm-70.29-2.06l.89-1.96,4.43-.4h3.21c4.4.01,6.46,4.02,10.83,4.02l.47-.54-7.03-6.12c-3.46-.36-7.52-2.33-10.97-.85-2.87,1.23-6.72,2.29-10.14,2.29h-2.81c-7.39,0-13.86-7.76-23.34-1.5l2.22,2.59,3.08.11c1.61-.62,1.27-1.6,4.01-1.6h3.21l4.4.51,3.73,2.96-.12.97,14.04.22-.1-.7h0Zm69.08-9.17c-.88-1.75-4.07-3.21-5.61-3.21h-2.01c-2.65,0-.91.75-3.52.78l-.49-2.79c8.59,0,13.53,3.65,18.44,3.64,6.35-.02,10.67-4.99,16.91-5.59,9.94-.96,10.56,4.4,18.76,2.72,4.4-.9,15.92-1.89,20.12-.77l-.29,2.96c-4.7,1.39-8.24-4.06-15.55-.71-5.98,2.74-10.49-.26-16.24-.68-9.48-.7-6.44-1.55-15.18,2.14-10.69,4.51-6.41,1.55-15.33,1.51h0Zm-88.22-3.21c3.57,0,7.49.53,10.7-.93,3.26-1.48,5.52-2.68,9.35-2.68h1.2s2.72.21,2.72.21l10.11,4.61h2.41c7.02-.05,9.25-2.82,15.4-2.75l-1.37,2.74c-7.34,0-3.65.2-8.75,2.08-4.22,1.56-6.8-.92-9.79-.82l-.92-.89-3.83-1.9-5.54-.55-.85-1.15c-5.2,0-16.69,7.71-20.86,2.01h0Zm-21.25-.4c4.4,0,2.91-2.39,6.39-2.43,2.79-.03,5.65.03,8.45.03-.45-1.13-2.44-1.6-4.01-1.6h-6.41c-1.9,0-5.93.82-7.62,1.6.49,2.06.35,2.41,2.81,2.41h.4Z"/>
    <path class="cls-2" d="m374.37,519.79l-.35-3.3c1.77-.16,2.13-.8,4.01-.8h.8c1.81,0,4.15,1.07,5.09,1.73l-9.56,2.36h0Zm37.75,2.32h-4.41c-2.57,0-8.06-.77-8.82-2.75l16.83-2.06h.4s2.08-.08,2.08-.08l1.45,1.36.15.4,8.41-2.52,3.54,2.45c-4.59,0-5.51-.74-10.35.48-3.22.81-5.72,2.73-9.3,2.73h0Zm151.18-.8h-6.01c-3.2,0-6.64-1.34-9.54-1.69v-.46s7.13.14,7.13.14l12.43.02,6.46-.37c3.43-2.75,11.99-1.65,16.79-1.65.17.72.4,1.21.4,2.01,0,1.15-.16,1.42-.4,2.41-4.48-.08-6.42-3.47-12.94-2.49-4.58.69-9.69,2.09-14.33,2.09h0Zm-111.88,2.41h-2c-2.93,0-8.3-1.29-10.02-2.93l7.61.52h.4c5.76,0,10.66-3.21,15.64-3.21l8.43-.09,4.4.49v4.81c-2.34-.05-6.73-2.41-10.43-2.41h-.8c-4.91,0-8.02,2.81-13.23,2.81h0Zm55.74-2.81c2.46,0,7.55-.1,9.51.91,3.72,1.92,4.58,1.49,8.93,1.49-.73,1.03-4.24,1.6-5.61,1.6h-2.41c-1.37,0-9.67-3.34-10.42-4.01h0Zm-127.92,6.42c4.46,8.4,10.5-.91,21.81,3.05,7.44,2.6,15.3,6.94,23.09,2.15,8.78-5.41,14.6.6,22.81,2.48,11.18,2.56,13.81-3.94,25.32-1.66l1.29-3.58c-13.74-3.42-20.56,4.81-31.28-.52-13.86-6.88-18.91.49-31.36.49h-1.2c-13.93,0-12.66-9.38-30.48-2.41h0Zm117.09,5.61v-2.81c9.34-4.79,14.19.95,21.4,2.26,5.97,1.09,15.1-3.63,21.73-4.86,4.33-.8,7.31,1.39,11.02,1.78,4.36.45,8.4-.73,12.83-.76,9.54-.07,11.43-3.53,23.11.96l-2.7,3.86c-4.79-.71-3.89-2.03-10.41-2.03h-1.6c-7.72,0-11.34,2.57-20.02.37-6.64-1.69-12.34-2.8-19.02.3-5.83,2.7-11.42,4.99-18.07,2.71-10.47-3.58-7.09-3.52-18.28-1.77h0Zm-109.06,6.67c5-3.53,16.14-3.61,21.53-.53,9.81,5.6,15.49-.88,22.15-.95,7.82-.09,14.93,2.9,22.37,4.6,3.86.88,9.29-4.44,22.17-.96v3.21c-11.04-1.6-15.39,3.25-23.29,1.23-7.77-1.99-12.89-6.56-22.09-3.3-12.72,4.51-11.07,1.8-21.42-1.31-9.03-2.7-18.58,3.88-21.41-1.99h0Zm108.66,4.56c3.74.07,7.54-.95,12.05-.82,4.07.12,5.84,2.43,9.32,3.12,6.76,1.32,13.41-3.39,19.97-4.66,10.2-1.98,11.97,4.81,20.98,2.52,4.73-1.2,5.5-1.76,10.67-1.76,7.19,0,5.09,1.16,10.02,2.41l1.85-3.06c-4.82-4.92-15.78-2.46-21.82-1.66-8.56,1.12-13.44-3.34-22.44-1.99-5.36.8-15.83,5.6-19.87,4.86-9.34-1.71-7.71-5.73-20.74-2.15v3.21h0Zm-101.71,6.7l3.37,3.03c5.4-2.8,14.94-2.94,20.3.14,8.14,4.68,10.96,2.85,18.48-.44,8.39-3.68,12.89,2.65,18.85,3.62,3.08.5,18.92-2.05,19.83-3.14-.89-4.78-16.75,1.72-20.27,1.22-7.37-1.05-4.97-5.97-19.8-5.1-9.28.54-7.52,6.6-19.2.74-6.2-3.11-14.95-2.55-21.56-.07h0Zm104.11,3.73v-2.41c9.54-3.88,15.49,5.96,26.04,1.98,4.11-1.56,5.8-4.06,10.96-4.69,4.45-.54,8.88,1.51,13.93,1.51h7.62c6.12,0,13.84-3.01,18.05,2.41l-.81,1.6c-3.8-.13-5.74-1.6-11.2-1.18-4.18.33-6.64,1.58-11.25,1.58h-.8c-12.88,0-8.55-6.84-25.95.52-4.21,1.78-8.89,2.78-13.25.98-7.61-3.15-5.06-2.58-13.34-2.3h0Zm-96.24,6.02c10.38-6.82,20.69,3.51,28.82,2.35,4.95-.7,6.49-4.62,13.42-3.7,2.9.39,11.42,2.59,12.3,5.76-4.74-1.12-5.79-2.41-11.23-2.41h-.4c-5.93,0-6.14,2.79-10.85,3.2-6.28.55-6.57-1.39-11.04-2.97-3.4-1.2-7.88-1.97-11.56-1.2-4.17.88-6.4,3.6-9.46-1.04h0Zm97.04,3.61c10.7-.36,6.24-.14,15.13,2.91,4.94,1.69,9.08-1.63,13.56-3.49,6.73-2.79,8.89-1.61,14.82.78,3.73,1.51,11.58-1,16.24-1h2.41c4.13,0,7.47,2.38,8.43-.79-5.57-5.52-10.84-.81-17.25-.81h-2.01c-11.82,0-13.31-6.59-26.69,1.38-11.88,7.07-16.73-7.31-24.63-.97v2.01Z"/>
  </g>
  <path class="cls-11" d="m272.63,183.51l5.46-4.11,5.91,7.84-.18-12.16,7.26-5.47-.54,12.68,16.47,7.86-6.72,5.07-10.16-5.73-.21,5.59,3.82,5.07-5.46,4.11-15.64-20.75h0Zm28.17-4.14c1.61,2.58,3.38,4.45,5.31,5.63,1.93,1.17,3.84,1.72,5.72,1.65,1.88-.08,3.88-.78,6-2.1,2.08-1.3,3.53-2.84,4.36-4.63.82-1.79,1.08-3.74.79-5.85-.29-2.11-1.24-4.45-2.85-7.03-2.21-3.55-4.79-5.78-7.7-6.69-2.92-.91-5.94-.39-9.07,1.56-3.04,1.9-4.8,4.39-5.25,7.46-.45,3.06.44,6.4,2.69,10h0Zm5.82-3.59c1.39,2.23,2.74,3.6,4.05,4.14,1.31.53,2.57.42,3.78-.34,1.24-.78,1.91-1.86,2-3.23.09-1.38-.64-3.3-2.18-5.77-1.3-2.08-2.6-3.37-3.91-3.88-1.31-.51-2.57-.38-3.79.38-1.17.73-1.8,1.8-1.9,3.21-.1,1.41.55,3.25,1.95,5.49h0Zm10.04-21.75l18.67-9.11,2.81,5.77-6.27,3.06,8.58,17.59-6.14,3-8.58-17.58-6.26,3.06-2.81-5.77h0Zm41.75,4.44l-7.17,3.04.69,4.37-6.43,2.73-2.5-27.17,6.86-2.91,17.81,20.67-6.59,2.8-2.68-3.52h0Zm-3.51-4.61l-5.9-7.64,1.41,9.55,4.49-1.91h0Zm15.1-22.87l19.76-6.42,1.98,6.1-6.63,2.16,6.05,18.61-6.5,2.11-6.05-18.61-6.63,2.15-1.98-6.1h0Zm41.28,11.26l-7.62,1.62-.16,4.42-6.83,1.45,2.73-27.14,7.29-1.55,13.54,23.69-7,1.49-1.95-3.97h0Zm-2.57-5.2l-4.34-8.63-.44,9.64,4.77-1.01h0Zm10.79-18.82l3.17,25.79,6.38-.78-1.74-14.16,9.96,13.15,6.4-.79-3.17-25.79-6.4.79,1.75,14.27-10.02-13.25-6.34.78h0Zm35.94-3.92l6.83-.48.99,14.09c.21,2.96.14,5.22-.2,6.8-.34,1.58-1.14,2.95-2.42,4.12-1.28,1.16-2.97,1.82-5.07,1.97-2.23.16-3.98-.07-5.25-.7-1.28-.62-2.29-1.59-3.05-2.9-.76-1.31-1.28-2.97-1.53-4.96l6.44-1.5c.09,1.14.24,1.98.43,2.53.2.54.5.97.91,1.28.28.21.65.29,1.14.26.76-.05,1.3-.42,1.61-1.11.31-.69.41-1.83.3-3.4l-1.12-15.99h0Zm28.09-.42l6.82.12-.27,15.49c-.03,1.54-.26,2.98-.69,4.34-.43,1.35-1.09,2.54-1.98,3.55-.89,1.01-1.81,1.7-2.78,2.11-1.34.55-2.94.81-4.8.78-1.08-.02-2.25-.12-3.52-.33-1.27-.2-2.32-.57-3.17-1.11-.85-.54-1.62-1.3-2.31-2.29-.69-.98-1.16-1.99-1.41-3.02-.39-1.66-.58-3.13-.56-4.4l.27-15.49,6.82.12-.28,15.86c-.02,1.42.29,2.53.94,3.34.66.81,1.58,1.23,2.77,1.25,1.17.02,2.11-.36,2.79-1.13.68-.77,1.03-1.88,1.06-3.32l.28-15.86h0Zm12.75.66l6.37.44,7.3,14.92,1-14.34,6.43.45-1.81,25.92-6.43-.45-7.27-14.81-1,14.23-6.41-.45,1.81-25.92h0Zm36.01,20.73l.84-5.34,10.43,1.65-1.73,10.94c-2.25,1.28-4.18,2.09-5.81,2.42-1.63.34-3.5.34-5.6,0-2.59-.41-4.62-1.27-6.09-2.56-1.47-1.29-2.5-3.04-3.06-5.24-.58-2.2-.65-4.62-.23-7.28.44-2.8,1.32-5.16,2.63-7.08,1.31-1.91,3-3.25,5.07-4.03,1.61-.6,3.67-.69,6.18-.3,2.41.38,4.18.93,5.29,1.63,1.11.7,1.98,1.65,2.6,2.86.62,1.2,1,2.66,1.13,4.39l-6.73.33c-.12-1.01-.46-1.82-1.02-2.44-.56-.61-1.33-1-2.33-1.16-1.48-.23-2.76.18-3.83,1.25-1.07,1.07-1.82,2.91-2.23,5.53-.44,2.78-.31,4.83.39,6.16.7,1.33,1.84,2.12,3.44,2.38.75.12,1.49.1,2.22-.05.73-.15,1.58-.46,2.56-.94l.38-2.42-4.51-.71h0Zm19.62-12.96l10.98,2.94c2.39.64,4,1.79,4.83,3.44.83,1.65.92,3.72.26,6.18-.68,2.54-1.86,4.34-3.54,5.42-1.68,1.08-3.85,1.26-6.51.55l-3.61-.97-2.5,9.32-6.63-1.78,6.72-25.1h0Zm3.76,12.48l1.62.43c1.27.34,2.23.32,2.89-.06.65-.38,1.09-.98,1.31-1.79.21-.79.17-1.52-.14-2.18-.3-.67-1.06-1.17-2.3-1.5l-1.88-.5-1.5,5.6h0Zm19.49-5.72l-8.03,24.71,6.52,2.12,8.03-24.71-6.52-2.12h0Zm12.44,4.13l5.96,2.29,2.62,16.4,5.15-13.42,6.02,2.31-9.31,24.26-6.02-2.31-2.62-16.29-5.11,13.32-6-2.3,9.31-24.26h0Zm28.27,35.97l-.9,4.33,6.43,3.14,3.91-27-6.7-3.27-18.86,19.71,6.28,3.06,2.84-3.39,7,3.41h0Zm1.18-5.68l-4.38-2.14,6.28-7.33-1.9,9.47h0Zm19.97-8.07l5.42,3.38-.55,16.6,7.62-12.19,5.46,3.41-13.77,22.04-5.46-3.41.53-16.49-7.56,12.1-5.45-3.41,13.77-22.04h0Zm22.36,34.29l3.79,2.55-1.37,2.03c-1.09.02-2-.06-2.72-.24-.72-.17-1.4-.47-2.03-.9-1.34-.9-2.04-2.11-2.11-3.6-.07-1.5.67-3.42,2.25-5.75,1.48-2.2,2.93-3.55,4.36-4.07,1.42-.51,2.75-.35,4,.48.83.56,1.38,1.24,1.62,2.03.25.79.21,1.68-.11,2.64l6.24,2.54c.61-1.62.88-3.1.83-4.45-.05-1.36-.44-2.59-1.15-3.69-.72-1.11-2.09-2.35-4.11-3.71-2.1-1.42-4.01-2.2-5.72-2.34-2.2-.17-4.3.33-6.3,1.51-2,1.19-3.79,2.95-5.38,5.3-1.51,2.23-2.46,4.47-2.87,6.7-.41,2.23-.23,4.25.57,6.04.78,1.8,2.26,3.43,4.44,4.9,1.77,1.19,3.46,1.98,5.08,2.37,1.61.39,3.72.47,6.29.26l6.2-9.18-8.75-5.9-3.02,4.48Z"/>
  <path class="cls-12" d="m695.65,833.26c-24.43,10.13-49.87,17.88-75.18,25.6l-.79.24-5.55,1.69c-41.57,12.64-90.47,27.5-122.88,56.05l-14.63,12.88-1.46,1.29-1.46-1.29-14.63-12.88c-32.42-28.55-81.31-43.41-122.88-56.05l-5.55-1.69-.79-.24c-25.31-7.71-50.75-15.47-75.18-25.6h0c-53.55-19.98-86.59-55.18-106.12-98.55-19.46-43.2-25.46-94.46-24.99-146.79h0V99.31h48.64c13.65,0,26.09-5.61,35.11-14.63,9.02-9.02,14.63-21.45,14.63-35.11v-29.93h506.47v29.93c0,13.65,5.61,26.09,14.63,35.11,9.02,9.02,21.45,14.63,35.11,14.63h48.64v488.62h0c.47,52.33-5.53,103.59-24.99,146.79-19.53,43.36-52.57,78.57-106.12,98.54h0Zm-76.46,21.38c25.15-7.67,50.43-15.37,74.76-25.46l.08-.03c52.34-19.5,84.63-53.89,103.71-96.25,19.17-42.55,25.07-93.19,24.61-144.95v-.02s0-484.19,0-484.19h-44.21c-14.87,0-28.42-6.1-38.24-15.92-9.82-9.82-15.92-23.36-15.92-38.24v-25.5H226.35v25.5c0,14.87-6.1,28.42-15.92,38.24-9.82,9.82-23.36,15.92-38.24,15.92h-44.21v484.21c-.47,51.76,5.43,102.41,24.6,144.95,19.08,42.36,51.37,76.75,103.71,96.25l.08.03c24.34,10.09,49.61,17.8,74.76,25.46l.79.24,5.55,1.69c42.01,12.77,91.42,27.79,124.52,56.94l13.17,11.6,13.17-11.6c33.11-29.16,82.52-44.18,124.52-56.94l5.55-1.69.79-.24h0ZM246.28,41.78h-2.21v7.79c0,19.76-8.09,37.73-21.11,50.76-13.03,13.03-31,21.11-50.76,21.11h-26.51v466.58h0c-.64,69.75,11.23,119.4,31.91,154.85,20.78,35.62,50.42,56.9,85.21,69.79,23.54,9.78,48.91,17.52,74.27,25.25,50.37,15.36,100.74,30.71,136.61,62.3l1.46,1.29,1.46-1.29c35.86-31.58,86.23-46.94,136.61-62.3,25.37-7.73,50.73-15.47,74.27-25.25,34.8-12.9,64.43-34.17,85.21-69.79,20.69-35.45,32.55-85.1,31.91-154.85h0V121.44h-26.51c-19.76,0-37.73-8.09-50.76-21.11-13.03-13.03-21.11-31-21.11-50.76v-7.79H246.28Zm228.88,4.43h-226.67v3.36c0,20.98-8.58,40.06-22.41,53.89-13.83,13.83-32.9,22.41-53.89,22.41h-22.08v462.17c-.64,68.88,11.01,117.8,31.32,152.61,20.21,34.64,49.06,55.33,82.95,67.89l.09.03c23.46,9.75,48.68,17.44,73.91,25.13,50.17,15.3,100.35,30.6,136.79,61.93,36.44-31.33,86.61-46.63,136.79-61.93,25.22-7.69,50.45-15.38,73.91-25.13l.09-.03c33.89-12.55,62.74-33.25,82.95-67.89,20.31-34.81,31.96-83.72,31.33-152.61v-.02s0-462.15,0-462.15h-22.08c-20.98,0-40.06-8.58-53.89-22.41-13.82-13.83-22.41-32.9-22.41-53.89v-3.36h-226.67Z"/>
  <path class="cls-10" d="m174.72,597.91l.13.14c.13.14.21-.42.26-.53.12-.24.13-.26.26-.52.22-.44.45-.87.69-1.3.48-.86,1.01-1.68,1.61-2.47,1.15-1.5,2.57-2.81,4.22-3.76,3.42-1.97,7.49-2.05,11.12-.59,6.38,2.58,10.8,10.57,14.8,16.01,8.6,11.67,16.99,23.52,26.52,34.47,20.2,23.22,37.27,41.6,62.31,60,26.09,19.17,50.28,30.42,80.56,41.34,25.55,9.22,76.92,18.75,103.74,18.3,29.52-.5,72.44-11.21,100.32-21.63,27.48-10.27,54.66-26.49,77.65-44.66,22.7-17.95,42.39-38.89,60.62-61.29,9.25-11.36,17.55-23,26.45-34.54,4.06-5.26,7.83-14.53,14.1-16.65,13.42-4.54,12.47,13.75,14.45,14.45l.52-6v-.8c0-2.47-.67-6.79-1.32-9.11-1.45-5.21-2.05-4.26-3.49-7.33-1.58,0-10.76-3.11-14.4-3.65-4.98-.73-13.32.36-17.28-.77-13.96-3.98-12.9-4.31-24.88-11.21-1.11.61-16.95,25.22-19.37,28.71-5.52,7.96-15.05,19.3-21.77,26.36-16.54,17.39-31.72,31.07-51.7,44.54-41.44,27.94-96.98,45.37-146.93,45.59-48.56.22-104.8-20.97-145.63-46.93-21.36-13.58-34.98-25.58-51.27-44.97-14.46-17.21-27.7-37.89-42.11-54.13-3.82,1.46-11.7,7.31-15.96,9.71-4.2,2.36-14.87,5.18-19.7,5.96-18.82,3.03-24.34,6.98-24.49,27.24h0Zm14.04-6.42c9.09-.08,18.8,18.72,24.07,25.65,7.32,9.63,14.62,18.87,22.35,28.18,7.67,9.23,15.94,17.66,24.27,26.25,4.16,4.3,8.7,8.11,12.95,12.2,8.03,7.72,8.15,6.92-5.82,5.45-25.74-2.7-53.09-9.81-70.25-30.73-9.23-11.25-12.88-19.38-17.44-33.09-3.48-10.47-6.58-33.77,9.86-33.92h0Zm57.74,130.34c6.39-10.05,16.66-17.89,26.92-23.61,8.35-4.66,9.71-5.84,16.45-.11,3.89,3.31,10.24,8.04,14.53,10.73,24.77,15.54,40.67,22.69,67.61,33.44-8.54,17.59-32.68,20.02-49.26,24.52-9.16,2.49-18.19,5.57-26.11,10.79-4,2.63-6.29,5.5-9.31,9.14-3.37,4.07-4.51,10.64-5.95,12.5-1.53-2.41-2.81-24.22-2.81-28.88,0-7.48,1.11-8.14,1.96-14.08.66-4.64,3.81-9.17,4.05-11.59-6.61-10.28-25.62-22.9-38.09-22.86h0Zm421.85,39.7v2.41l.43.05-3.63,32.03c-1.65-.99-4.45-9.17-5.65-11.59-1.85-3.74-4.72-6.6-7.88-9.36-5.28-4.61-15.96-10.41-22.51-12.37-8.17-2.45-45.9-14.3-47.36-22.41,5.79-.9,28.2-11.88,33.99-15.33,10.57-6.3,20.13-12.25,30.55-18.78,4.51-2.82,9.57-7.29,13.88-10.58,6-4.59,8.43-9.76,14.9-6.51,8.27,4.14,21.82,15.19,26.46,23.25-3.64,1.74-11.64,2.85-17.13,5.49-5.61,2.69-8.96,5.45-13.71,9.14-6.43,5-7.14,7.65-4.93,14.33,2.25,6.81,2.61,12.91,2.61,20.24h0Zm92.63-178.46c7.98-2.55,8.95,7.88,10.4,12.93,2.34,8.18-.15,11.94-1.87,19.66-2.66,11.92-9.17,21.89-16.08,31.64-14.21,20.05-40.44,28.16-63.46,31.89-13.66,2.21-11.44,1.78-5.12-5.12,3.61-3.94,8.09-8.06,11.92-12.05,7.51-7.8,15.82-16.75,22.43-25.29,6.98-9.03,14.13-17.51,20.93-26.79,3.36-4.59,17.15-25.68,20.86-26.87h0Zm-282.1-41.81h12.67v1.67h-12.67v-1.67h0Zm-.18-16.91h11.72v2.18h-11.72v-2.18h0Zm-.38,48.53l-2.38-6.27,19.57-1.58c1.32,2.01,2,2.27,2,4.81v2.81c0,5.12-7.67,9.22-12.03,9.22h-2.41c-2.35,0-5.69-.53-6.54-2.68l2.62-.94-.53-3-4.38,1.01.02-2.7,3.6-.5.45-.19h0Zm15.95-10.99l-12.42,1.34c-.94.3-3.32-.61-5.58-.6l.79-4.01c1.93.53,3.83,1.6,6.02,1.6h2c3.63,0,6.25-1.95,8.71-1.99l.48,3.66h0Zm-15.98-7.69h13.21c1.52,0,3.13-.59,4.01-1.2l-3.33-7.37.53-.25h-14.29s-.13,8.82-.13,8.82h0Zm-14.74,12.31s4.84,1.88,6.07,1.33c1.23-.55,1.78-2.2,1.78-2.2l2.46,4.95s-3.38-1.42-5.75-1.6c-2.37-.18-4.56-2.47-4.56-2.47h0Zm-.41,2.79s4.61,2.79,6.48,3.25c1.87.46,2.14-.41,2.14-.41l-.73,2.7s-7.48-.69-7.89-5.54h0Zm15.13-39.97c-2.59,3.77-1.92,4.88.4,8.42h6.82l6.49-2.25c.21-.76.33-1.21.33-2.16v-1.6c0-1.46.14-.83-.4-2.01l-13.63-.4h0Zm-54.45,89.38c.3.02,2.23-.91,2.15,1.61-.08,2.52.31,4.42.31,4.42,0,0-3.44-1.29-2.46-6.03h0Zm7.49,1.6c.3.02,2.23-.91,2.15,1.61-.08,2.52.31,4.42.31,4.42,0,0-3.44-1.29-2.47-6.03h0Zm6.72,1.7c.3.02,2.23-.91,2.15,1.61-.08,2.52.31,4.42.31,4.42,0,0-3.44-1.29-2.46-6.03h0Zm6.33,2.08c.3.02,2.23-.91,2.15,1.61-.08,2.52.31,4.42.31,4.42,0,0-3.44-1.29-2.46-6.03h0Zm6.24,1.02c.3.02,2.23-.91,2.15,1.61-.08,2.52.31,4.42.31,4.42,0,0-3.44-1.29-2.46-6.03h0Zm6.14,1.5c.3.02,2.23-.91,2.15,1.61-.08,2.52.31,4.42.31,4.42,0,0-3.44-1.29-2.47-6.03h0Zm6.24,1.79c.3.02,2.23-.91,2.15,1.62-.08,2.52.31,4.42.31,4.42,0,0-3.44-1.29-2.46-6.03h0Zm5.76,2.18c.3.02,2.23-.91,2.15,1.61-.08,2.52.31,4.42.31,4.42,0,0-3.44-1.29-2.46-6.03h0Zm6.53,2.08c.3.02,2.23-.91,2.15,1.62-.08,2.52.31,4.42.31,4.42,0,0-3.44-1.29-2.46-6.03h0Zm66.76-13.28c.97,4.74-2.47,6.03-2.47,6.03,0,0,.39-1.9.31-4.42-.08-2.52,1.85-1.59,2.15-1.61h0Zm-6.14,1.5c.97,4.74-2.46,6.03-2.46,6.03,0,0,.39-1.9.31-4.42-.08-2.52,1.85-1.59,2.15-1.62h0Zm-6.14,1.5c.97,4.74-2.46,6.03-2.46,6.03,0,0,.39-1.9.31-4.42-.08-2.52,1.85-1.59,2.15-1.62h0Zm-6.14,1.5c.97,4.74-2.46,6.03-2.46,6.03,0,0,.39-1.9.31-4.42-.08-2.52,1.85-1.59,2.15-1.61h0Zm-6.14,1.5c.97,4.74-2.46,6.03-2.46,6.03,0,0,.39-1.9.31-4.42-.08-2.52,1.85-1.59,2.15-1.61h0Zm-6.14,1.5c.97,4.74-2.46,6.03-2.46,6.03,0,0,.39-1.9.31-4.42-.08-2.52,1.85-1.59,2.15-1.61h0Zm-6.14,1.5c.97,4.74-2.46,6.03-2.46,6.03,0,0,.39-1.9.31-4.42-.08-2.52,1.85-1.59,2.15-1.62h0Zm-6.14,1.5c.97,4.74-2.47,6.03-2.47,6.03,0,0,.39-1.9.31-4.42-.08-2.52,1.85-1.59,2.15-1.61h0Zm-6.14,1.5c.97,4.74-2.46,6.03-2.46,6.03,0,0,.39-1.9.31-4.42-.08-2.52,1.85-1.59,2.15-1.61h0Zm-17.68,9.02s-1.1,1.48-2.11,2.84c-1.01,1.36-3.63,1.48-3.63,1.48,0,0,1.1-1.36,2.41-3.56,1.31-2.2,3.33-.76,3.33-.76h0Zm-7.26,1.23s-1.1,1.48-2.11,2.84c-1.01,1.36-3.63,1.48-3.63,1.48,0,0,1.1-1.36,2.41-3.56,1.31-2.2,3.33-.76,3.33-.76h0Zm-6.54.85s-1.1,1.48-2.11,2.84c-1.01,1.36-3.63,1.48-3.63,1.48,0,0,1.1-1.36,2.41-3.56,1.31-2.2,3.33-.76,3.33-.76h0Zm-7.05,1.63s-.92,1.24-1.77,2.38c-.85,1.14-3.04,1.24-3.04,1.24,0,0,.92-1.14,2.02-2.98,1.1-1.85,2.79-.64,2.79-.64h0Zm37.86-3.17s2.02-1.44,3.33.76,2.41,3.56,2.41,3.56c0,0-2.62-.13-3.63-1.48-1.01-1.36-2.11-2.84-2.11-2.84h0Zm7.37.86s2.02-1.44,3.33.76,2.41,3.56,2.41,3.56c0,0-2.62-.13-3.63-1.48-1.01-1.36-2.11-2.84-2.11-2.84h0Zm6.94,1.29s2.02-1.44,3.33.76c1.31,2.2,2.41,3.56,2.41,3.56,0,0-2.62-.13-3.63-1.48-1.01-1.36-2.11-2.84-2.11-2.84h0Zm6.51,1.86s1.51-1.08,2.49.57c.98,1.65,1.8,2.66,1.8,2.66,0,0-1.96-.09-2.72-1.11-.76-1.01-1.58-2.12-1.58-2.12h0Zm-31.35-1.16s-.61.83-1.18,1.59c-.57.76-2.03.83-2.03.83,0,0,.61-.76,1.34-1.99.73-1.23,1.86-.43,1.86-.43h0Zm3.32-6.99s-.61.83-1.18,1.59c-.57.76-2.03.83-2.03.83,0,0,.61-.76,1.34-1.99.73-1.23,1.86-.43,1.86-.43h0Zm-.56,9.14s1.13-.8,1.86.43c.73,1.23,1.34,1.99,1.34,1.99,0,0-1.46-.07-2.03-.83-.57-.76-1.18-1.59-1.18-1.59h0Zm3.45-1.64s1.01-.72,1.67.38c.65,1.1,1.2,1.78,1.2,1.78,0,0-1.31-.06-1.82-.74-.51-.68-1.06-1.42-1.06-1.42h0Zm-86.33-29.69c.3.02,2.23-.91,2.15,1.61-.08,2.52.31,4.42.31,4.42,0,0-3.44-1.29-2.46-6.03h0Zm8.99,1.86c.3.02,2.23-.91,2.15,1.61-.08,2.52.31,4.42.31,4.42,0,0-3.44-1.29-2.46-6.03h0Zm6.54,1.69c.3.02,2.23-.91,2.15,1.61-.08,2.52.31,4.42.31,4.42,0,0-3.44-1.29-2.46-6.03h0Zm-10.64-2.4c.3.02,2.23-.91,2.15,1.61-.08,2.52.31,4.42.31,4.42,0,0-3.44-1.29-2.46-6.03Z"/>
  <path class="cls-12" d="m275.44,632.28l3.68,3.95-8.84,8.25c-1.86,1.73-3.39,2.92-4.6,3.57-1.21.64-2.51.89-3.91.74-1.4-.15-2.67-.84-3.8-2.05-1.2-1.29-1.9-2.49-2.12-3.61-.22-1.12-.08-2.27.42-3.46.49-1.18,1.34-2.39,2.53-3.64l4.15,3.14c-.71.67-1.19,1.21-1.45,1.63-.26.42-.39.83-.4,1.26,0,.28.13.56.39.84.41.44.92.57,1.53.39.61-.18,1.41-.74,2.4-1.66l10.02-9.35h0Zm13.07,12.94l-9.09,10.09c-.83.92-1.66,1.45-2.5,1.6-.84.15-1.61-.09-2.29-.7-.69-.62-1.01-1.37-.94-2.23.07-.85.5-1.74,1.32-2.64l9.09-10.09-3.99-3.6-8.87,9.86c-.73.81-1.45,1.86-2.15,3.13-.44.79-.72,1.68-.86,2.67-.14.99-.11,1.87.09,2.66.2.79.62,1.57,1.26,2.35.64.78,1.28,1.46,1.91,2.02,1.09.98,2.19,1.63,3.29,1.97.8.24,1.74.26,2.83.07,1.1-.19,2.15-.62,3.17-1.27,1.02-.65,1.97-1.47,2.85-2.44l8.87-9.86-3.99-3.6h0Zm11.29,9.83l4.19,3.4-7.61,9.4c-1.6,1.97-2.95,3.37-4.06,4.18-1.11.8-2.36,1.23-3.77,1.28-1.41.04-2.76-.46-4.05-1.5-1.37-1.11-2.23-2.2-2.6-3.28-.37-1.08-.39-2.24-.07-3.48.32-1.24.99-2.56,2-3.95l4.55,2.54c-.61.76-1.01,1.37-1.21,1.81-.2.45-.27.88-.22,1.3.04.28.21.54.5.78.47.38.99.44,1.57.17.58-.27,1.29-.93,2.14-1.98l8.62-10.65h0Zm15.24,11.58l-7.98,10.99c-.73,1-1.5,1.61-2.32,1.85-.82.24-1.61.08-2.35-.46-.75-.55-1.14-1.25-1.17-2.12-.02-.86.32-1.78,1.03-2.76l7.98-10.99-4.35-3.16-7.8,10.73c-.64.88-1.25,2-1.81,3.34-.35.83-.54,1.75-.58,2.75-.04,1,.09,1.88.37,2.64.28.76.78,1.5,1.5,2.21.72.71,1.42,1.32,2.11,1.81,1.18.86,2.35,1.4,3.48,1.61.82.15,1.76.08,2.82-.23,1.07-.31,2.07-.84,3.02-1.6.94-.76,1.81-1.67,2.58-2.73l7.8-10.73-4.35-3.16h0Zm-5.55,22.85l12.45-18.46,7.43,5.01c1.38.93,2.33,1.79,2.85,2.59.53.79.73,1.75.63,2.87-.11,1.12-.56,2.27-1.36,3.45-.69,1.02-1.46,1.79-2.3,2.31-.84.52-1.72.8-2.63.86-.58.04-1.27-.07-2.06-.33.38.59.61,1.07.7,1.46.06.26.08.75.06,1.45-.02.7-.07,1.23-.15,1.57l-1.43,6.79-5.04-3.4,1.42-7.23c.19-.93.24-1.59.15-1.97-.13-.5-.4-.89-.81-1.16l-.39-.26-5.04,7.48-4.47-3.02h0Zm11.87-7.94l1.88,1.27c.2.14.66.32,1.35.54.35.13.72.1,1.11-.09.4-.19.73-.48,1.01-.88.4-.6.56-1.16.48-1.67-.08-.52-.53-1.05-1.34-1.6l-1.96-1.32-2.54,3.76h0Zm21.53,2.4l-10.45,19.66,8.2,4.36c.35.19,1.11.47,2.27.86.88.3,1.59.4,2.15.32.89-.14,1.74-.51,2.55-1.12.8-.62,1.47-1.43,2.02-2.46.66-1.25.96-2.43.88-3.53-.08-1.11-.58-2.12-1.51-3.04.9.06,1.68-.08,2.36-.44,1.01-.53,1.82-1.37,2.44-2.54.74-1.39.96-2.76.66-4.12-.3-1.36-1.18-2.44-2.66-3.22l-8.9-4.73h0Zm.68,10.26l1.99-3.73,2.1,1.12c.72.38,1.14.81,1.26,1.29.12.47.03,1-.28,1.57-.33.62-.72,1.01-1.19,1.19-.46.17-1.07.06-1.81-.33l-2.07-1.1h0Zm-4.1,7.71l2.12-3.98,2.41,1.28c.83.44,1.32.93,1.47,1.46.15.53.06,1.08-.25,1.66-.33.63-.76,1.03-1.3,1.22-.53.19-1.21.07-2.03-.36l-2.42-1.29h0Zm19.36-10.19l13.04,6.08-2.01,4.31-8.15-3.8-1.5,3.21,7.56,3.52-1.92,4.12-7.56-3.52-1.85,3.97,8.4,3.91-2.13,4.57-13.29-6.2,9.41-20.18h0Zm6.57,27.53l5.07,1.85,3.08-8.47.45.16c.46.17.82.48,1.07.93.18.35.29.99.33,1.95l.38,7.36,5.71,2.08-.26-6.94c0-.35-.09-.87-.23-1.56-.15-.69-.29-1.16-.41-1.39-.18-.36-.53-.77-1.03-1.25.83.05,1.52,0,2.08-.18.87-.28,1.65-.77,2.35-1.47.7-.7,1.25-1.63,1.68-2.79.49-1.33.65-2.56.48-3.68-.17-1.11-.6-1.99-1.31-2.63-.7-.65-1.83-1.25-3.39-1.82l-8.42-3.07-7.62,20.92h0Zm9.59-10.57l1.55-4.27,2.22.81c.93.34,1.49.75,1.69,1.23.2.48.18,1.06-.06,1.74-.17.46-.42.82-.76,1.1-.34.28-.69.4-1.06.36-.73-.05-1.22-.12-1.45-.2l-2.14-.78h0Zm12.83-4.78l15.73,4.51-1.52,5.29-5.28-1.51-4.62,16.11-5.17-1.48,4.62-16.11-5.28-1.51,1.52-5.29h0Zm28.5,7.48l-3.29,13.18c-.3,1.2-.79,2.06-1.45,2.58-.67.53-1.46.68-2.35.45-.9-.23-1.53-.73-1.87-1.52-.34-.78-.37-1.77-.08-2.95l3.29-13.18-5.21-1.3-3.21,12.87c-.26,1.06-.41,2.32-.43,3.77-.01.91.15,1.83.49,2.77.34.94.78,1.71,1.33,2.31.54.6,1.28,1.1,2.22,1.48.93.39,1.81.69,2.63.89,1.42.35,2.7.42,3.83.19.81-.17,1.66-.59,2.53-1.27.88-.68,1.61-1.55,2.2-2.61.59-1.05,1.05-2.22,1.37-3.49l3.21-12.87-5.21-1.3h0Zm6.22,1.35l16.06,3.12-1.05,5.4-5.39-1.05-3.2,16.45-5.27-1.02,3.2-16.45-5.39-1.05,1.05-5.4h0Zm27.51,4.13l-1.18,13.53c-.11,1.23-.45,2.16-1.03,2.78-.58.62-1.34.9-2.25.82-.93-.08-1.63-.49-2.09-1.21-.46-.72-.64-1.69-.54-2.9l1.18-13.53-5.35-.47-1.16,13.21c-.1,1.09-.04,2.35.17,3.79.13.9.43,1.78.92,2.66.48.87,1.04,1.56,1.67,2.07.63.51,1.44.88,2.42,1.12.98.24,1.9.39,2.74.47,1.46.13,2.73-.01,3.81-.41.78-.29,1.55-.84,2.3-1.65.76-.81,1.35-1.79,1.77-2.93.42-1.13.69-2.36.8-3.67l1.16-13.21-5.35-.47h0Zm7.1,22.97l.78-22.25,8.96.31c1.66.06,2.93.28,3.79.68.87.39,1.55,1.1,2.06,2.1.5,1.01.73,2.22.68,3.64-.04,1.23-.29,2.29-.73,3.17-.44.89-1.03,1.59-1.78,2.13-.47.34-1.11.61-1.92.81.63.3,1.09.58,1.37.87.19.19.46.59.82,1.2.35.61.59,1.08.7,1.41l2.39,6.52-6.07-.21-2.63-6.89c-.33-.89-.64-1.47-.91-1.75-.38-.36-.81-.54-1.3-.56l-.47-.02-.31,9.01-5.39-.19h0Zm5.85-13.02l2.27.08c.24,0,.72-.08,1.44-.26.36-.08.66-.3.89-.67.24-.37.37-.8.39-1.28.03-.72-.13-1.28-.48-1.68-.34-.4-1-.62-1.99-.65l-2.37-.08-.16,4.54h0Zm19.17-8.45l10.04-.88c1.67-.15,3,.27,3.99,1.25.99.98,1.55,2.25,1.69,3.82.11,1.31-.11,2.46-.67,3.46-.37.67-.95,1.21-1.74,1.65,1.28.27,2.25.85,2.92,1.73.67.88,1.06,2.03,1.19,3.44.1,1.15-.02,2.2-.35,3.16-.34.96-.85,1.73-1.53,2.33-.42.37-1.08.67-1.97.9-1.19.31-1.98.48-2.38.51l-9.25.81-1.94-22.18h0Zm6.16,8.23l2.34-.2c.84-.07,1.41-.31,1.7-.71.29-.4.41-.95.35-1.64-.06-.65-.27-1.14-.63-1.47-.36-.34-.95-.47-1.76-.4l-2.37.21.37,4.21h0Zm.76,8.7l2.73-.24c.92-.08,1.56-.35,1.9-.8.34-.45.48-1.03.42-1.73-.06-.66-.29-1.17-.7-1.53-.41-.37-1.09-.51-2.03-.43l-2.72.24.39,4.49h0Zm12.18-18.51l5.38-.47,1.94,22.18-5.38.47-1.94-22.18h0Zm15.25-1.88l5.34-.75,1.68,11.97c.35,2.52.45,4.45.29,5.82-.17,1.36-.71,2.57-1.64,3.63-.93,1.06-2.22,1.7-3.86,1.93-1.74.24-3.13.13-4.17-.33-1.04-.47-1.9-1.24-2.59-2.33-.68-1.08-1.19-2.47-1.53-4.16l4.96-1.6c.14.96.31,1.67.5,2.12.19.46.46.8.8,1.05.23.16.53.21.91.16.6-.08.99-.43,1.2-1.03.2-.6.2-1.58.02-2.92l-1.91-13.57h0Zm21.07,15.14l-5.98,1.16-.16,3.77-5.39,1.05,2.18-23.11,5.78-1.12,10.65,20.61-5.53,1.07-1.56-3.44h0Zm-2.04-4.52l-3.39-7.49-.35,8.22,3.74-.73h0Zm4.36-14.74l6.51,21.29,5.14-1.57-1.59-5.18,1.58-4.38,6.18,7.67,6.33-1.93-10.42-11.35,3.63-9.86-6.84,2.09-2.93,9.69-2.46-8.04-5.14,1.57h0Zm25.13-7.15l9.28-3.94c1.54-.66,2.94-.67,4.18-.04,1.24.63,2.17,1.66,2.79,3.11.51,1.21.66,2.38.43,3.49-.15.75-.53,1.45-1.14,2.11,1.3-.14,2.4.11,3.31.74.91.63,1.64,1.6,2.19,2.9.45,1.06.66,2.1.64,3.11-.03,1.01-.27,1.91-.73,2.69-.29.48-.82.97-1.6,1.47-1.04.66-1.73,1.07-2.1,1.22l-8.55,3.63-8.7-20.5h0Zm8.4,5.93l2.16-.92c.77-.33,1.24-.73,1.4-1.2.16-.47.1-1.03-.17-1.67-.25-.6-.6-1-1.05-1.2-.45-.21-1.05-.15-1.8.17l-2.19.93,1.65,3.89h0Zm3.41,8.04l2.53-1.07c.85-.36,1.37-.81,1.56-1.35.19-.54.14-1.13-.13-1.78-.26-.61-.63-1.02-1.14-1.24-.5-.22-1.19-.15-2.06.22l-2.51,1.07,1.76,4.15h0Zm4.88-20.54l9.41,20.18,13.29-6.2-2.13-4.57-8.39,3.91-1.85-3.97,7.56-3.52-1.92-4.11-7.56,3.52-1.5-3.21,8.15-3.8-2.01-4.31-13.04,6.08h0Zm25.53,12.6l-10.45-19.66,7.91-4.21c1.47-.78,2.68-1.22,3.62-1.3.95-.09,1.89.17,2.83.79.94.62,1.74,1.56,2.41,2.82.58,1.09.9,2.13.95,3.12.06.99-.1,1.89-.48,2.73-.24.53-.66,1.08-1.25,1.66.69-.06,1.23-.04,1.62.07.26.07.7.28,1.31.63.61.35,1.05.64,1.31.87l5.33,4.45-5.37,2.85-5.72-4.65c-.74-.61-1.29-.96-1.66-1.06-.5-.12-.97-.06-1.41.17l-.42.22,4.23,7.96-4.76,2.53h0Zm-1.44-14.2l-2.13-4.01,2.09-1.11c.87-.46,1.55-.61,2.05-.43.5.17.91.58,1.25,1.21.23.43.33.86.31,1.3-.02.44-.17.78-.44,1.03-.53.51-.9.83-1.12.94l-2.01,1.07h0Zm5.33-13.01l2.83,4.72,4.71-2.83,8.63,14.37,4.61-2.77-8.63-14.37,4.71-2.83-2.83-4.72-14.03,8.43h0Zm15.07-9.22l4.47-3.02,12.45,18.46-4.47,3.02-12.45-18.46h0Zm7.19-4.8l13.09,18.01,4.09-2.97-7.19-9.89,12.44,6.08,4.11-2.99-13.09-18.01-4.11,2.99,7.23,9.95-12.51-6.11-4.06,2.95h0Zm15.4-11.2l6.21-5.03c1.22-.99,2.39-1.58,3.48-1.77,1.1-.18,2.21-.08,3.35.31,1.14.4,2.24,1.03,3.32,1.91,1.08.87,2.09,1.9,3.05,3.08,1.5,1.85,2.49,3.42,2.99,4.7.5,1.28.73,2.51.7,3.67-.03,1.16-.28,2.13-.77,2.9-.66,1.06-1.37,1.89-2.11,2.49l-6.21,5.03-14.01-17.3h0Zm7.35.53l1.04-.85c1.09-.88,2.14-1.17,3.16-.87,1.02.3,2.27,1.36,3.75,3.19,1.12,1.39,1.83,2.47,2.12,3.26.29.79.35,1.45.18,2-.17.55-.69,1.18-1.57,1.89l-1.03.83-7.65-9.45h0Zm25.44-4.68l3.21,1.98,3.98-3.98-20.36-11.13-4.16,4.16,11.11,20.38,3.88-3.88-1.98-3.21,4.31-4.31h0Zm-4.21-2.6l-7-4.31,4.31,7.01,2.69-2.69h0Zm-3.51-15.85l3.66-3.93,6.15,5.74-2.31-9.86,4.88-5.23,1.78,10.35,14.7,4.62-4.51,4.84-9.19-3.55.82,4.58,3.96,3.7-3.66,3.93-16.28-15.19Z"/>
  <path class="cls-3" d="m304.64,501.66v-5.62l.02-2.05-3.3-3.55.55,3.99-.08,4.02c0,2.85-1.18,8.54-2.34,10.9-3.2,6.51-1.64,3.31-6.08,7.15,5.35,3.4,11.23-9.84,11.23-14.84h0Zm-32.08-77.4l2.37-1.2.33,1.5c2.95-2.89,4.81-6.11,6.52-9.92,1-2.22,3.78-11.86,4.46-12.38-.22-4.35,2.08-7.15-1.24-12.03-1.62,3-3.57,14.03-4.87,18.34-.86,2.82-1.86,6.15-2.6,9.03-1.8,7.06-4.21,3.8-4.98,6.65h0Zm-10.03-20.85c.01-3.05-11.78-46.47-12.83-48.12-.92.41-1.88,4.35-2.02,6.01-.37,4.54.34,3.5,1.37,6.67.79,2.43,3.56,9.87,4.71,11.73,3.06,4.94,6.46,20.39,8.77,23.72h0Zm-11.84,48.52l.29,6.44c2.84,4.27,11.93,10.19,16.26,14.53,2.79,2.79,4.88,4.83,7.08,8.16,1.28,1.94,4.37,9.45,5.45,9.79-1.81-7.28-6.83-16.26-12.34-21.75-2.21-2.2-15.64-16.51-16.74-17.16h0Zm55.95,129.94c1.75,2.65,2.61,4.74,5.57,5.26,2.83.49,5.2,1.96,8.46,1.96h8.42l4.4-.49c-.65-1.55-5.49-.51-7.58-.74-1.61-.18-5.33-1.01-6.83-1.59-1.58-.61-4.49-1.07-6.56-1.86-2.23-.85-3.18-1.9-5.88-2.54h0Zm-40.8-74.27l-.35-2.75c.29.07,12.01,10.36,14.61,11.72,3.8,1.99,13.79,6.95,14.91,11.56-2.49-.67-25.87-17.56-29.17-20.53h0Zm10.32-41.23c2.81,1.83,4.3,3.2,8.02,3.21,4.18-2.76,6.19-7.19,6.41-12.44.08-1.75,1.82-16.55,2.01-16.84,3.4,5.38,1.49,16.49-1.07,22.19-1.13,2.52-2.31,7.11-5.81,7.83-2.78.57-8.84-1.27-9.56-3.95h0Zm-2.34-134.36v13.25s-1.85,17.22-1.85,17.22l-.62,2.83c2.66-2.96,6.81-25.12,6.74-30.03l-4.07-7.01-.55.18.36,3.57h0Zm-6.88,42.52c0-18.48.84-13.02-6.68-28.21-2.87-5.79-9.28-20.94-6.15-26.33,1.24,2.05,2.09,7.95,2.84,10.79.72,2.7,2.16,7.26,3.43,9.8,2.27,4.56,9.09,13.95,8.56,18.3l-2,15.64h0Zm111.88,206.13c3.75,7.39,1,17.25,3.35,22.72,1.98,4.62,10.75,10.17,15.5,10.16-3.16-6.88-1.52-11.32-6.87-19.2-2.28-3.35-7.99-13.33-11.98-13.69h0Zm-133.13-239.02c0-3.3,2.99-20.49,4.81-21.26.48.74,3.81,17.71,6.49,22.79,3.3,6.27,8.35,13.7,8.35,20.52v6.42l-2.78,23.66c-1.32-1.41-5.22-18.73-6.38-22.12-1.31-3.81-3.96-20.32-7.68-20.39l-1.8,7.58-1.16-4.74.15-12.46h0Zm111.48,216.56c5.98.51,18.25,16.65,19.64,22.5l-2.8-.44c.04,2.11,2.38,4.94,2.93,7.9.59,3.17.64,6.54,1.03,9.8,1.17,9.75,6.77,8.7,8.87,12.78-3.95-.09-11.75-2.88-14.45-6-3.14-3.63-8.08-5.42-10.56-9.89-4.34-7.85,1.96-24.29-4.67-36.64h0Zm-50.13,28.88c6.63,1.66,8.4,3.61,16.44,3.61h6.02c11.85,0,10.13-2.68,22.04,2.82,3.9,1.8,15.19,6.52,16.46,10.41-1.45.94-4.8-1.63-8.76-1.15-2.56.31-5.97,1.56-8.61,2.23-9.1,2.3-9.66,2.11-18.81.62-5.88-.96-22.67-13.66-24.77-18.54h0Zm29.67-47.72c8.44,19.93,1.56,17.27.02,34.94-.56,6.43,16.25,19.81,22.04,20.4-.66-2.47-2.86-4.24-3.19-8.84-.27-3.71.24-7.88-.05-11.58-.2-2.61-.93-7.51-1.67-9.96-.58-1.92-3.48-7.73-3.51-8.12h3.21c-.34-3.89-12.72-15.73-16.85-16.84h0Zm-24.75-21.93l-.25.54c-.53,1.75,6.14,8.68,2.34,16.77-1.11,2.37-2.73,5.11-3.6,7.23-2.2,5.39-.59,4.21.6,8.62-1.23-.33-9.77-13.05-11.23-15.23-1.94-2.89-2.28-6.61-4-9.23-1.74-2.65-5.32-4.72-5.61-8.02,6.11,0,9.11.32,12.52-5.12,2.08-3.32,3.92-9.18,3.92-13.73l.08-1.61-.56-4.79c6.87,1.83,12.51,20.52,12.46,27.76l-6.66-3.17h0Zm22.53,20.54l-.6.63-4.4-1.25c.05,3,7.81,8.47,6.76,17.99-1.04,9.41-5.14,9.77-2.35,20.11-4.14-.44-18.88-16.05-20.72-20.59-1.82-4.5,2.6-10.88,4.42-14.95,3.49-7.79,1.52-10.44.25-17.39l16.63,15.46h0Zm51.54,84.4c-3.35.34-9.44,3.38-13.91,4.14-6.65,1.13-9.53,1.08-15.72-1.38-4.25-1.7-21.01-10.4-22.14-14.1l5.65.52h6.42c9.27,0,19.84-6.6,28.28-2.61,4.25,2.01,23.76,5.49,23.85,10.23l-12.43,3.21h0Zm-144.76-236.61c0-2.92,3.13-19.39,4.01-20.85,4.71,1.8,20.05,53.4,20.05,60.56v2.01l-.38,5.65-.42-.04c-5.34-2.13-15.31-24.31-15.99-24.91l-.54-.31-1.44,2.57c-3.53-.26-5.28-15.09-5.28-18.66v-6.01h0Zm-2.01,46.52v-4.01c0-3.04,2.42-15.12,4.01-16.84.15.14,7.22,11.52,9.23,14.03,3.27,4.1,8.71,7.95,11.4,11.86,4.71,6.85,8.04,27.96,10.25,36.67l-24.37-25.61-.82.61-.08,4.56c-4.58-1.76-9.62-16.29-9.62-21.25h0Zm21.25,72.19c.07.02,11.63,10.92,14.56,12.71,5.46,3.34,11.69,7,16.84,10.83,2.74,2.04,4.96,4.31,5.95,7.69,1.5,5.1,2.29,5.21,4.61,9.43,1.92,3.49,11.3,12.9,12.18,15.49-.62-.16-17.42-7.2-17.56-7.3-2.23-1.53-5.29-2.88-7.75-4.68-1.19-.87-2.39-1.95-3.54-2.88-3.3-2.68-2.5-.61-4.03.03-1.4-2.13-5.49-5.25-7.63-8.01-2.05-2.64-4.62-6.49-6.2-9.44-2.13-3.98-3.23-6.77-4.57-11.07-.78-2.49-2.54-12.16-2.86-12.78h0Zm36.39,53.44c5.41,2.5,11.62,4.29,16.69,6.56,5.46,2.45,24.6,15.19,24.72,21.8-8.26,0-12.72.32-19.44-1.81-2.5-.79-15.08-5.81-15.85-5.81l-.37.25,3.58,5.77c-11.49-1.07-26.6-30.72-23.66-35.29.34.11,11.51,7.23,14.33,8.53h0Zm-21.55-89.14c3.98.36,10.09,8.7,16.13-1.92,2.44-4.29,4.72-15.02,4.72-20.14,3.13,4.81,7.22,34.47,7.04,42.36l-4.07-2.84-.31.44c-.45,1.44,1.34,4.03,1.34,6.96v5.21c0,6.24-2.36,16.03-9.62,16.04-1.28-1.94-7.85-18.61-8.64-21.84-2.04-8.38-6.6-14.99-6.6-24.28h0Zm-28.47-11.63c4.56,3.23,23.97,20.94,26.45,25.28,3.31,5.79,14.85,31,14.85,36.88-3.83-2.51-10.4-5.6-13.53-8.52-1.94-1.82-3.71-3.32-5.62-5.21-1.37-1.36-5.21-7.12-5.31-2.71-3.97-1.4-9.85-15.22-12.11-19.17-3.76-6.6-4.74-18.59-4.74-26.54h0Zm20.45-31.68c2.53.26,4.84,5.24,10.83-1.6,2.3-2.63,4.6-7.28,5.88-10.56,1.82-4.66,2.73-7.75,3.88-12.56.6-2.51,2.25-13.1,2.67-13.77l.63-.1,5.15,32.9-.57.09.02,12.43-.97,9.28-2.58-6.81-.88.34c-1.29,4.64-.56,44.36-14.21,29.85-4.2-4.47-9.85-32.89-9.85-39.47h0Zm4.41-71.38c-3.57-.89-8.48-16.51-9.35-20.33-1.49-6.56.99-18.63,4.05-24.68,3.33-6.57,18.33-33.47,26.95-30.8,2.61,5.93-.59,22.36-2.65,28.63-1.79,5.46-5.36,22.56-7.37,25.91-1.82-2.06-2.03-5.62-5.21-5.61v4.41l-5.26-6.99-.87.58.43,8.42.09,6.81-.8,13.64h0Zm0,68.98c-6.95-.15-4-1.81-5.7-8.33-.91-3.49-1.42-9.11-2.01-12.83-1.19-7.41,2.1-15.99,4.74-23.12,2.7-7.31,4.66-15.59,7.18-22.5,1.75-4.79,4.48-24.43,4.59-24.63,4.18,2.54,8.45,29.05,8.45,34.86v7.22l-1.85,14.8-.96.03-.51-2.91c-2.34.72-5.57,16.87-6.3,19.76-.74,2.93-1.98,6.84-2.9,9.93-1.38,4.64-3.14,4.5-4.73,7.7h0Zm13.35-85.89c2.43-1.08,8.72-18.72,9.78-22.13,2.46-7.92,6.47-19.09,3.74-27.14h-2.81c-.41,6-2.9,20.5-4.9,25.98-1.16,3.17-7.53,22.05-5.81,23.29Z"/>
  <path class="cls-4" d="m459.83,461.55c-9.6-6.76-21.82-12.61-30.58-20.75-2.23-2.07-12.17-13.25-12.36-13.39-5.18-3.61-7.59,13.88-7.59,16.89,4.12,2.73,11.1,10.9,13.77,15.11,2.19,3.46,9.06,18.52,9.53,19.01l4.1-2.24-.16.72,1.94,6.84.49-.14c0-2.5,1.09-8.55,3.64-8.86l6.39,8.37.4-.32c-.13-1.42-.4-1.26-.4-2.81v-2.01c0-2.41,1.23-4.97,3.61-5.61,2.99,1.98,3.52,8.42,10.43,8.42-.97-4.02-3.61-7.93-3.61-13.23v-2.81l.4-3.21h0Zm-87.42-208.54c1.17-10.01,36.84-42.21,46.15-47.69,6.05-3.56,21.23-14.97,27.28-19.64,4.02-3.11,28.47-17.65,28.83-18.09-5.29-3.25-62.95,31.83-71.25,37.02-7.08,4.43-59.8,44.61-60.68,48,2.4,1.52,7.3-1.6,10.03-1.6h9.62c4.1,0,4.55,2.01,10.02,2.01h0Zm118.7-81.41c3.42,11.82,11.5,27.7,13.91,39.43,2.73,13.29,10.12,28.47,10.95,41.98,2.97-.06,10.48-3.61,15.64-3.61h6.82c5.15,0,12.37,3.16,14.84,3.21-2.67-8.57-54.63-76.06-62.15-81.01h0Zm41.7,311.61c2.11-.67,15.62-25.38,19.42-30.3,3.42-4.44,7.83-9.48,10.8-14.05,3.71-5.71-1.43-13.78-9.37-13.8-7.01,14.33-39.84,35.93-54.14,42.91l-.62.09,2.67,18.01c2.38-.6,1.75-2.5,4.03-3.6,1.68-.81,3.25-1.21,4.95-2.27,4.45-2.8,4.09-7.39,5.82-8.62l3.47,2.95-.26,1.06v4.41c0,1.33-.84,2.88-1.2,4.41,7.51,0,9.72-9.86,11.66-10.46l.49-.15,2.29,9.41h0Zm-119.9-229.39c-3.65-.32-8.94-3.61-16.04-3.61h-8.02c-3.93,0-9.26,3.4-10.83,2.41,1.67-7.83,37.38-39.69,45.65-45.78,9.9-7.29,44.75-34.33,53.8-37.64-.08,1.09-32.82,33.25-36.85,37.74-5.88,6.56-11.2,13.99-15.92,21.38-2.59,4.06-4.33,7.52-6.62,11.83-1.32,2.48-4.87,13.29-5.18,13.67h0Zm148.37-.8c-4.75-11.44-22.4-32.38-30.98-42.41-5.62-6.58-11.38-13.34-16.82-20.08-3.32-4.11-15.49-16.33-17.16-19.33,5.33,1.01,48.63,31.64,53.75,36.88,5.66,5.8,17.49,15.52,24.13,21.19,4.69,4.01,18.45,18.46,21.98,23.34-2.93-.06-9.51-3.21-12.03-3.21h-9.22c-4.28,0-10.4,3.6-13.64,3.61h0Zm-46.11-81.81c4.25-2.64,78.41,27.37,88.08,32.22,19.75,9.92,59.21,31.76,70.32,50.79-2.87-.24-7.97-3.21-11.23-3.21h-9.22c-10.31,0-7.42,8.77-17.39-5.07-3.27-4.54-9.43-10.57-13.58-14.49-10.02-9.47-20.03-16.83-31.65-24.09-9.44-5.9-26.38-15.31-36.55-19.19-3.66-1.4-38.32-16.52-38.78-16.96h0Zm-56.54,81.81c-4.32,0-9.12-3.61-14.03-3.61h-11.23c-4.33,0-11.48,3.61-14.84,3.61,2.25-8.45,20.96-38.67,27.47-45.12,4.9-4.85,32.3-36.39,35.09-37.5-.06,1.64-6.4,14.85-7.44,18.62-1.68,6.07-4.46,13.76-6.47,20-3.47,10.75-8.83,32.73-8.54,43.99h0Zm44.91-83.01c10.25,5.22,25.93,11.23,37,15.93,10.17,4.31,25.23,12.74,34.66,18.68,13.88,8.73,50.83,34.97,58.26,48.41-6.67-.44-15.27-4.84-23.75-1.3-5.04,2.11-4.62,4.44-7.92-.75-1.41-2.22-4.38-5.83-6.18-7.82-9.11-10.07-17.83-18.01-28.08-26.86-9.11-7.86-21.11-17.12-31.09-23.85-3.85-2.6-32.19-21.21-32.91-22.43h0Zm-168.42,84.62c-6.15,0-9.57-3.61-16.04-3.61h-6.01c-2.8,0-8.24,1.7-11.23,2.41,9.15-11.55,58.66-41.2,73.43-48.48,14.87-7.34,73.02-34.93,86.17-35.74-1.96,2.06-29.15,13.92-34.99,17.94-9.43,6.48-24.03,12.68-32.89,20.05-8.79,7.31-21.34,14.1-30.86,22.07-4.97,4.16-25.67,20.85-27.57,25.37h0Zm372.53-5.21c-5.98-.4-9.83-1.04-15.65,1.19-3.9,1.49-8.92,5.96-11.81,3.09-6.51-6.48-10.8-11.2-17.94-17.43-13.78-12.02-27.18-18.73-42.39-28.19-16.06-9.99-31.71-14.71-48.8-21.78-6.9-2.86-49.83-17.32-51.49-18.69,14.6,1.84,39.51,9.19,54.24,13.53,17.33,5.1,32.71,11.67,49.41,17.96,21.58,8.13,70.54,32.56,84.42,50.32h0Zm-412.63,5.21c-5.65,0-10.17-6.02-17.24-6.02l-2.01-.04-3.6.04c2.44-3.39,35.21-25.41,40.82-28.56,6.25-3.52,15.97-9.83,22.17-12.32,4.79-1.92,18.99-8.82,23.54-11.34,12.18-6.77,36.41-14.77,50.21-19.17,6.69-2.13,52.99-14.46,55.74-12.83-.35.32-41.63,14.26-47.74,17.22-13.95,6.75-30.34,14.03-44.6,20.36-17.4,7.73-67.58,37.45-77.28,52.65h0Zm168.82-2c-.12-8.84,5.86-34.83,8.59-43.95,1.48-4.95,11.01-38.45,13.47-39.47.2.29,5.85,17.61,6.98,20.29,2.84,6.75,4.57,13.5,7.18,20.09,2.41,6.08,11.58,37.55,11.9,43.04-2.12-.04-7.18-2.89-9.63-3.2-3.54-.46-7.74-1.61-11.23-1.61h-6.41c-3.11,0-8.16,1.03-11.32,1.51-2.69.41-7.73,3.26-9.53,3.3h0Zm152.71,201.24c-1.19,3.19-10.4,5.72-14.02,8.43-2.31,1.73-10.88,11.61-11.16,11.69,0-3.15,1.07-9.71-2.01-10.83l.51.34-12.68,18.95-.66-.44c0-4.11-.36-13.41-6.62-10.39l-2.61,12.79h-.8c0-3.76-2.45-11.08-6.82-10.03,0,6.55-.08,7.48-3.94,11.96-.72-1.11-3.34-10.77-7.4-9.26-.9,2.31,3.51,11.71-5.1,13.75.09-5.8,2.51-5.33-1.51-12.14-2.34-3.96.64-6.55,2.51-10.53,2.63-5.6,8.47-13.55,12.41-18.47,7.95-9.91,6.18-11.38,20.72-9.45,9.04,1.2,21.37,2.86,19.6-9.58,12.1,0,24.3,10.52,19.57,23.18h0Zm-250.15-23.18c2.1,2.43,1.24,4.81,5.82,8.21,3.13,2.32,6.69,2.82,10.39,3.65,8.27,1.84,16.75.92,25.33,3.14,8.04,2.09,20.84,25.98,23.02,33.92l-.39-.16-3.6,8.63-.42-11.27c-4.69.41-8.37,6.65-10.43,9.62l-.94.23-3.06-12.66.52-.13c-2.34-.86-4.36,2.42-5.28,3.78-2.39,3.53-2.06,3.4-2.06,7.97l-.6.22-5.23-14.03.61-.23c-5.22-1.26-8.43,5.18-8.42,9.63-3.9-2.58-5.89-4.52-8.65-8.19-1.73-2.3-5.06-9.84-6.59-10.26-2.22.61-2,8.84-2,11.23-2.07-1.35-2.58-4.13-5.28-5.94-2.22-1.5-4.39-3.13-6.43-4.8-4.84-3.96-8.36-3.52-12.68-9.78-4.13-5.99-4.41-10.46,1.93-14.77,1.49-1.01,13.91-7.88,14.44-8.02h0Zm121.1-177.26c1.77,6.03,3.71,11.6,2.26,17.92-1.73,7.56-1.54,10.74,1.14,17.98,5.96,16.08,9.66,14.89,2.01,32.48-3.31,7.61,1.93,27.44,4.15,35.94,3.94,15.08-6.45,22.73-5.55,35.61.39,5.62,8.56,25.11,11.01,31.53,7.87,20.63,2.08,15.65-2.51,32.75-3.39,12.64-3.11,23.56,2.04,35.9,1.88,4.51,4.65,9.79,7.49,13.76,3.94,5.51,7.15,6.22,11.26,10.56l-8.84.65-14.83-.05-27.27-2.36-11.26-.24-12.45,1.73-.12-.07c-.07-.07,5.84-4.11,6.34-4.49,2.13-1.64,4.34-3.14,6.44-4.79,4.08-3.21,8.51-7.05,9.58-12.4,2.78-13.81-11.16-18.29-6.32-36.46,2.45-9.19,12.57-20.27,13.73-30.5.98-8.67-8.37-25.67-8.36-35.91.01-10.4,10.33-20.43,11.86-32.29,1.65-12.82-8.01-26.05-3.23-38.1,6.86-17.27,12.6-8.61,5.03-31.88-5-15.34,5.31-19.52,2-37.69,6.62,8.32-.42,21.47,2.18,32.7,1.24,5.38,3.13,10.03,4.43,15.2,1.96,7.79-.66,8.92-2.96,15.51-5.14,14.71-2.69,18.98.53,33.04,2.49,10.88-3.4,20.88-7.57,30.51-12.09,27.86,15.06,29.62,4.28,61.63-4.01,11.91-5.67,21.09-2.53,33.62,1.34,5.35,3.18,10.57,3.54,16.11.41,6.42-.36,12.75.5,19.15,2.89-2.6,1.56-13.43,1.62-17.66.08-6.35-2-9.99-3.66-15.99-3.11-11.27-2.27-22.77,1.6-33.77,11.88-33.75-14.84-34.02-3.9-62.45,4.1-10.64,10.09-17.9,7.78-30.36-2.58-13.86-5.88-18.6-.78-33.23,6.33-18.16,4.1-12.1-.98-29.99-1.89-6.66-1.61-10.44.11-17,1.32-5.04-.57-11.71-1.35-17.11l1.58.49Z"/>
</svg>